<svg xmlns="http://www.w3.org/2000/svg" viewBox="0 0 385.84 167.62"><defs><style>.cls-1{fill:#fff;}</style></defs><g id="Layer_2" data-name="Layer 2"><g id="Layer_1-2" data-name="Layer 1"><path class="cls-1" d="M230.79,22.78v.58a15,15,0,0,1-.07,1.84v.65c-.22.88-.22,1.91-.44,2.71v.59c-.37,1.39-.59,2.93-1,4.18a4.82,4.82,0,0,1-.15.58c-.36,1.1-.8,2.27-1.24,3.3-.07.22-.07.36-.15.58a38.27,38.27,0,0,1-3.37,6.45c-.07.14-.07.22-.14.36s-.22.22-.3.37a8,8,0,0,1-.66,1.1c-.07.07-.07.15-.14.15-.44.58-.73,1.17-1.1,1.68-.07.07-.22.15-.29.22-.66,1-1.4,1.76-2.05,2.64l-.44.44a3.14,3.14,0,0,0-.44.58,3.35,3.35,0,0,1-.59.51,5.86,5.86,0,0,1-1.32,1.4c-.07.14-.14.22-.22.36-.29.3-.66.52-1,.81-.07.07-.07.14-.15.14a2,2,0,0,1-.44.44c-.07,0-.07.15-.14.15a8.09,8.09,0,0,1-.88.73,5.87,5.87,0,0,0-.66.66,6.8,6.8,0,0,1-1,.66,1.71,1.71,0,0,1-.3.37c-.43.29-.73.66-1.17,1-2,1.39-3.88,2.86-6,4.17a7.44,7.44,0,0,1-.95.66c-.15.08-.22.08-.37.15s-.15.22-.22.29L196.73,68c-.22.07-.37.07-.59.15a18.48,18.48,0,0,1-3.66,1.75.78.78,0,0,1-.29.22c-1.1.44-2.2,1-3.22,1.39s-2.27.88-3.37,1.32c-.37.15-.66.22-1,.37-.73.29-1.54.58-2.27.88s-1.17.29-1.76.51c-1.46.59-3.07,1.1-4.61,1.61-3.22,1-6.52,1.76-9.89,2.64-.36.07-.58.07-1,.15-1.25.36-2.79.65-4.1,1h-.3a7.94,7.94,0,0,1-1.24.29h-.3c-1.53.44-3.29.59-4.83,1h-.44c-.29.08-.73.08-1,.15a7.61,7.61,0,0,1-1.25.15c-.29.07-.88.14-1.24.22a4.44,4.44,0,0,1-1,.07c-1.39.29-2.93.22-4.32.51a8.1,8.1,0,0,1-1.39.07c-.88.22-2,.15-2.78.3h-.37a4.67,4.67,0,0,0-.95.07h-.59a4.35,4.35,0,0,0-.95.07c-.59,1-1.1,2.27-1.76,3.23-.22.29-.22.66-.44,1s-.36.73-.58,1.1a1.38,1.38,0,0,0-.37.73l.07.07a6.53,6.53,0,0,0,1.25,0h3.15c2.78,0,5.35-.07,8.2-.07H150c.37,0,.81-.07,1.17-.07s.88-.08,1.32,0a3.57,3.57,0,0,0,.37.07,2.84,2.84,0,0,1,.8-.07c.37.07.81-.08,1.25,0a6.74,6.74,0,0,0,1.68,0c.15-.08.37,0,.44,0a2.07,2.07,0,0,0,.66,0h1.69a1.23,1.23,0,0,0,.51,0,2.22,2.22,0,0,1,.73,0,9.2,9.2,0,0,0,1.39,0,2.29,2.29,0,0,1,.74,0,18.43,18.43,0,0,0,2,0H169s7,0,33.84-.08a13.3,13.3,0,0,1,2.34-.07c.3.07.88-.07,1.1,0s.3,0,.37-.07h.66a3.65,3.65,0,0,1,1.32,0,1.53,1.53,0,0,1,.8.73,1.06,1.06,0,0,1,.22.88c-.29,1.24-1,1.17-2.42,1.17a7.37,7.37,0,0,1-1.24-.07c-1.83,0-3.59-.08-5.42-.15l-15.67-.44a21.79,21.79,0,0,1-3.08-.07,2.55,2.55,0,0,1-.73,0c-.15,0-.3,0-.37.07h-1.1c-.88-.15-2,.07-2.85-.15-.3-.07-.59.08-.88,0s-.52.08-.81.08a10,10,0,0,0-2.12-.08h-.59c-.51-.07-1.76-.07-2.34-.07-.15,0-.37.07-.59.07a12.88,12.88,0,0,0-2.34-.07,18.2,18.2,0,0,1-2.86,0c-.29-.07-.66.07-.88,0a17.51,17.51,0,0,0-2.05,0c-.88-.07-2,0-3,0h-8.2a8.25,8.25,0,0,0-1.32,0h-4a7.27,7.27,0,0,0-1.24,0h-7a16.15,16.15,0,0,0-2.64.07c-.95,1.84-1.91,3.67-3,5.42a12.62,12.62,0,0,1-.66,1.4c-.66,1-1.17,2.19-1.83,3.22-.22.36-.3.73-.52,1.1-.88,1.39-1.61,3-2.49,4.32-.14.14-.14.36-.22.51-.29.44-.51,1-.8,1.39-1.39,2.27-2.49,4.69-4,6.89-.44.8-.73,1.61-1.24,2.41-1.47,2.42-2.86,5.13-4.32,7.55-.15.14-.15.36-.22.51l-1.18,1.91c-.22.36-.29.73-.51,1-.73,1.17-1.39,2.42-2.12,3.59-.22.37-.3.73-.51,1.1-.74,1.17-1.4,2.42-2.13,3.59-.22.36-.29.73-.51,1.1-1.32,2.12-2.57,4.39-3.88,6.51a1,1,0,0,1-.15.44c-.73,1.32-1.54,2.71-2.34,4-.22.37-.37.73-.59,1.1-.59,1-1.17,2.12-1.83,3.08a6.93,6.93,0,0,1-.51,1c-.59,1-1.18,2.05-1.83,3,0,.14-.08.21-.08.29s-.29.36-.36.51-.08.29-.22.44-.22.22-.3.37-.07.22-.07.29a11.26,11.26,0,0,1-.73,1c-.15.22-.15.37-.3.59-.07.07-.22.15-.29.29a.27.27,0,0,1-.07.22c-.07.22-.29.3-.37.52-.07.07-.07.22-.14.29a1,1,0,0,1-.3.29c-.07.15-.07.22-.14.37s-.15.14-.22.29a2.12,2.12,0,0,0-.3.51c-.07.08-.14.08-.22.15-.44.59-.87,1.39-1.61,1.68a3.81,3.81,0,0,1-2-.07c-1.39-.95-.36-3.15.08-4.39a8.26,8.26,0,0,1,.29-.88,12.51,12.51,0,0,1,.88-2c.29-.73.51-1.39.8-2.13.59-1.39,1.32-2.85,1.91-4.24.36-.81.66-1.47,1-2.2.22-.44.44-.88.66-1.25L95,146c.07-.07.07-.21.14-.29A29.13,29.13,0,0,0,96.39,143a24.63,24.63,0,0,0,1.17-2.42A2.87,2.87,0,0,0,98,140a30.54,30.54,0,0,1,1.68-3.45,3.38,3.38,0,0,0,.22-.58,7.65,7.65,0,0,0,.81-1.32c.07-.15,0-.29.15-.44,1.39-2.34,2.34-5.05,3.88-7.25.07-.15.07-.37.15-.51a7.36,7.36,0,0,0,.51-.88c.14-.3.22-.52.36-.81.37-.51.66-1.1,1-1.68,0-.15.07-.22.15-.37.51-1,1.09-1.9,1.61-2.86.22-.29.22-.58.44-.87.66-1.1,1.24-2.28,1.9-3.3.07-.15.07-.29.15-.37,1.54-2.56,2.93-5.27,4.54-7.76.22-.29.22-.59.36-.81,2.42-3.88,4.69-7.76,7-11.57a9.88,9.88,0,0,0,.8-1.1.56.56,0,0,0,.07-.29,19.19,19.19,0,0,0,1.1-1.61c.08-.07.08-.22.15-.29.15-.3.81-1,.81-1.32v-.08a10.48,10.48,0,0,0-2.13-.07c-1.54,0-3.15.07-4.61.07-5.86,0-11.28.15-17.14.22H96.68a12.28,12.28,0,0,1-1.68.08h-.37a7.31,7.31,0,0,0-1.32.07c-1.17,0-2.34.07-3.44.07A6.11,6.11,0,0,0,88.7,91,1.13,1.13,0,0,0,88,91a9.88,9.88,0,0,0-1.54,0h-.81c-.88,0-1.83-.08-2.63,0h-.44a11.59,11.59,0,0,1-2.2.07h-.73a1.26,1.26,0,0,1-.74.07c-.07,0-.29-.07-.44-.07a1.62,1.62,0,0,1-.58.07h-.59a14.86,14.86,0,0,0-1.68.08,11.16,11.16,0,0,1-2.2.07c-1.76,0-3.59-.07-5.27.07a1.67,1.67,0,0,0-.59,0,13.61,13.61,0,0,0-1.68.15H65c-1,.22-2.2-.15-3.22.07H60c-.37.08-1-.07-1.32.08a4.44,4.44,0,0,0-1,0c-.51.14-1.17-.08-1.68.07-.15,0-.44.07-.59.07a4,4,0,0,0-1.31.08,15.2,15.2,0,0,0-1.91,0,15,15,0,0,0-1.9,0c-2,.07-4.11.22-6.16.29H40.94c-.43.15-1-.07-1.46.07a12,12,0,0,0-1.54.08,10,10,0,0,1-2,.07,6.47,6.47,0,0,0-1.68.07c-.44.07-1-.07-1.47,0H32.3a5.42,5.42,0,0,0-1.54.07H28.57c-.37.08-1-.07-1.47,0-.14,0-.58.08-.8.08s-.15-.08-.22-.08a12.12,12.12,0,0,1-2.35.08H22.05a1.82,1.82,0,0,0-.66,0,16.61,16.61,0,0,1-2.64,0,8.49,8.49,0,0,0-1.24-.08h-.66a5.69,5.69,0,0,1-1.61-.07H14.5c-.87-.22-2.05,0-2.93-.22h-.43c-1.32-.36-2.79-.29-4.11-.66C4.1,90.75,1.39,89.79.3,87.16A6.78,6.78,0,0,1,.37,83a12.57,12.57,0,0,0,.44-1.53A24.11,24.11,0,0,1,3.66,76.9c.59-.87,1.25-1.68,1.91-2.56.07-.07.22-.15.29-.22.44-.58.95-1.1,1.32-1.61.22-.29.51-.44.66-.66a2.07,2.07,0,0,1,.51-.59l.44-.43c.37-.52,1-1,1.32-1.47.15-.07.22-.22.37-.29a11,11,0,0,1,1.9-1.83,4.12,4.12,0,0,0,.73-.88,10.18,10.18,0,0,1,1-.88c.15-.07.22-.22.37-.29A4.69,4.69,0,0,1,15,64.6c.22-.15.36-.37.58-.51.81-.66,1.47-1.47,2.27-2.05a1.21,1.21,0,0,0,.3-.3c.44-.36.88-.88,1.31-1.17,1.84-1.39,3.45-3.07,5.35-4.47.59-.44,1.17-1,1.76-1.46.07-.07.15-.22.22-.29,2.2-1.62,4.25-3.37,6.52-5,.51-.44,1.1-1,1.68-1.4,3.15-2.34,6.3-4.68,9.6-6.95.29-.22.58-.52.88-.74,5.34-3.66,10.69-7.17,16.33-10.62.8-.51,1.68-1.1,2.49-1.61.58-.36,1.17-.66,1.83-1,.37-.22.73-.59,1.17-.81,2.49-1.39,5.06-2.78,7.55-4.32l.51-.22c.73-.44,1.54-.81,2.27-1.25.29-.22.58-.22.88-.43,2.2-1.32,4.61-2.42,6.88-3.67.74-.36,1.47-.66,2.2-.95a11.8,11.8,0,0,1,1-.59c.73-.29,1.39-.58,2.12-.95.15,0,.22-.14.37-.22.95-.44,1.83-.8,2.78-1.17a1.41,1.41,0,0,0,.36-.29c1.54-.66,3.08-1.17,4.47-1.91A8.88,8.88,0,0,1,100,9.81c1.1-.51,2.34-.87,3.37-1.46a1,1,0,0,0,.44-.07c2.71-1.1,5.64-2,8.42-3.08.51-.15,1-.22,1.54-.37,1.39-.51,2.93-.87,4.32-1.39a11.63,11.63,0,0,0,1.61-.36c2-.66,4.1-.88,6.08-1.47.44-.15.73-.07,1.17-.22,1.39-.29,3-.36,4.4-.73.51-.15,1-.07,1.46-.22h.37c.73-.15,1.68-.07,2.49-.22h.66A5.83,5.83,0,0,1,137.4.07c.15,0,.3.08.44.08a.53.53,0,0,1,.37-.08A4.23,4.23,0,0,0,139.6,0c4.62,0,9.23.59,12.67,2.05a7,7,0,0,1,1.32.44c.07.07.22.15.29.22.44.22.81.37,1.25.59.73.44,1.46,1,2.2,1.53.36.3.73.74,1,1a10.43,10.43,0,0,1,.88.88c.29.36.51.8.81,1.17s.51.73.73,1a1.29,1.29,0,0,0,.15.51c.07.14.22.22.29.36s0,.3.07.44a15.65,15.65,0,0,1,.81,1.91c.22.73.29,1.54.44,2.27a20.56,20.56,0,0,1,.29,2.2v.8a2.91,2.91,0,0,1,0,1.1,6.06,6.06,0,0,1-.07,1.61,1.13,1.13,0,0,1,.07.51c-.07.22-.07.74-.15,1-.07.44,0,.88-.07,1.24-.29,1.1-.22,2.35-.59,3.44s-.58,2.49-.87,3.67a4.65,4.65,0,0,0-.22,1c-.66,1.91-1.25,4-1.91,5.86-.58,1.69-1.1,3.3-1.76,4.83-.14.37-.22.81-.36,1.25-1,2.27-1.91,4.61-2.86,6.88-.29.74-.66,1.4-.95,2.2a2.5,2.5,0,0,0-.44,1v.07h.07a7.59,7.59,0,0,1,.66-.81c.66-.87,1.39-1.61,2-2.49,1.39-1.83,3.08-3.44,4.47-5.34.15-.22.44-.37.66-.66l1.1-1.32c.07-.15.22-.22.29-.29.51-.66,1.1-1.17,1.61-1.83l.44-.44c.66-.88,1.54-1.61,2.2-2.49.37-.3.66-.66,1-1a8,8,0,0,1,.66-.8c.37-.37,1-.88,1.32-1.25a19.66,19.66,0,0,1,2.05-2.12A11.75,11.75,0,0,1,172.56,31a5.6,5.6,0,0,1,.59-.66A20.82,20.82,0,0,0,175,28.64c.22-.22.36-.44.58-.66a11.84,11.84,0,0,0,1.1-.95c.15-.15.22-.3.37-.37,1.76-1.32,3.15-3,4.91-4.32.36-.29.58-.59.87-.81.74-.58,1.4-1.17,2.13-1.68a4,4,0,0,0,.58-.59c1.91-1.32,3.67-2.78,5.57-4,.29-.22.59-.51.88-.73,1.76-1.17,3.66-2.27,5.49-3.44,1.1-.73,2.35-1.17,3.52-1.83.29-.22.66-.29,1-.51.15-.08.3-.22.44-.3a2.85,2.85,0,0,0,.88-.29c.15-.07.22-.15.37-.22.37-.15.66-.22,1-.37a41.71,41.71,0,0,1,5.5-1.83c.36-.07.58-.07.95-.14a1.61,1.61,0,0,1,.59-.15h.36c.51-.15,1.25-.15,1.76-.29h.73a3.62,3.62,0,0,1,1.25-.08h1c.08,0,.22.08.3.08h.58a2.35,2.35,0,0,1,.66.07,15.35,15.35,0,0,1,2.12.51c.22,0,.37.08.59.08A22.56,22.56,0,0,1,223.54,7,14.54,14.54,0,0,1,229,13a5,5,0,0,0,.14.51c0,.15.15.29.22.44s.08.29.08.44.14.22.22.29a1.26,1.26,0,0,0,.07.51c0,.15.15.22.22.37a1.71,1.71,0,0,0,.07.59c.08.29.22.8.3,1.17v.29a11.4,11.4,0,0,1,.29,1.32v.51c.07.37.15.88.22,1.25,0,.14-.07.29-.07.51A5.56,5.56,0,0,1,230.79,22.78Zm-89.28,44.9c.22-.3.51-.59.73-.88.73-1,1.39-2,2.12-3.08l.59-.59a9.89,9.89,0,0,0,.58-1c.15-.22.44-.36.52-.66a5.76,5.76,0,0,0,.44-1,17.2,17.2,0,0,1,.8-1.61c.37-.81.66-1.54,1-2.34.22-.59.66-1.25.88-1.83,1.17-2.86,2.34-5.64,3.59-8.43,1-2.41,1.83-4.9,2.78-7.32.22-.51.29-1.1.51-1.61.29-.88.66-1.83.95-2.71.15-.52.22-1,.37-1.47.44-1.17.59-2.42.95-3.66s.59-2.78,1-4.1c.15-.66.15-1.39.3-2v-.37c.14-.66.07-1.39.22-2.05a9.88,9.88,0,0,0,0-2.49.72.72,0,0,1,.07-.37c0-.07-.07-.44-.07-.51-.15-.58,0-1.1-.15-1.61a17.8,17.8,0,0,0-.37-2,17.68,17.68,0,0,0-2-4.32c-1.91-2.64-4.91-4.25-8.43-5.35-1.39-.44-2.93-.51-4.46-.88H144c-.74-.14-1.61-.07-2.35-.22-.22-.07-.58,0-.8-.07s-.22.07-.3.07l-1.31-.07c-.3.15-1.25-.07-1.62,0-1.17.07-2.27.15-3.44.15-.66.14-1.46.07-2.12.22-.44.14-.95.07-1.39.22L129.13,4h-.37c-.95.21-2.12.29-3.07.58-.3.07-.52,0-.81.07-2.42.66-5,1-7.25,1.76-.59.15-1.1.15-1.61.3-1.76.65-3.66,1.09-5.5,1.68-3.22,1.1-6.44,2.2-9.44,3.44-.88.37-1.76.59-2.64,1-6.88,3-13.55,6.08-20.07,9.45a4.21,4.21,0,0,0-.66.44c-.14.08-.29.08-.44.15-.88.51-1.9,1.1-2.85,1.61-.66.44-1.32.66-1.91,1-1.1.65-2.27,1.24-3.29,1.9-.22.22-.52.22-.81.37a8.27,8.27,0,0,1-.73.51,8,8,0,0,1-.81.36,3,3,0,0,1-.73.59,10.77,10.77,0,0,0-1.25.66c-.07,0-.14.15-.21.22-.22.15-.52.15-.74.29-1.17.81-2.34,1.54-3.51,2.27-.22.15-.52.22-.74.37-.87.58-1.68,1.17-2.56,1.76-.22.14-.44.14-.66.29-3.95,2.64-7.83,5.27-11.72,7.91-.22.15-.44.44-.66.59-.66.36-1.24.8-1.83,1.17-.22.14-.36.36-.58.51-1.54,1.1-3,2.2-4.54,3.3a10.07,10.07,0,0,0-1.4,1.09c-1.61,1.25-3.14,2.42-4.83,3.67l-.51.51c-.81.59-1.47,1.17-2.27,1.76-.22.14-.37.44-.59.58-2,1.47-3.66,3.15-5.57,4.62a2,2,0,0,0-.29.36A15.79,15.79,0,0,0,20,62.55a4.22,4.22,0,0,0-.52.51,8.27,8.27,0,0,1-1.24,1,14.87,14.87,0,0,0-1.1,1.17,15.21,15.21,0,0,0-2.27,2.12,16,16,0,0,0-1.54,1.54c-.14.15-.29.22-.44.37-.07,0-.07.07-.07.14a5.13,5.13,0,0,1-.66.66,4.22,4.22,0,0,1-.51.52c-.3.36-.66.65-1,1a3.37,3.37,0,0,1-.44.51C9.23,73.46,7.91,74.63,7,76c-.29.36-.59.65-.88,1a26.48,26.48,0,0,0-3,5.13,3.57,3.57,0,0,0-.51,1.24c-.08.22-.08.44-.15.66a3.16,3.16,0,0,0-.15,1.17,3.23,3.23,0,0,0,.37,1.25c.95,1.61,3.08,2.12,5.13,2.71.22.07.44,0,.73.07.8.22,1.76.22,2.64.44a7.37,7.37,0,0,0,1.24.15h.51c.52.14,1.17.07,1.69.22h.58c.88.14,1.91-.08,2.71.14h1a18,18,0,0,0,2.86.08h1a9.89,9.89,0,0,0,2.56.07H26a2.6,2.6,0,0,1,.74,0,9.21,9.21,0,0,0,1.39,0h.58c.37.07,1-.07,1.47,0a6.47,6.47,0,0,0,1.17,0h2c.81,0,1.61,0,2.49-.07a5.76,5.76,0,0,0,1.1,0c.22-.08.37,0,.59,0,.51-.15,1.09.07,1.68-.08.07.08.22.08.37.08a5.43,5.43,0,0,0,1.17-.08h.66c.8-.14,1.68.08,2.49-.07h.95a16,16,0,0,0,1.83-.07,9.2,9.2,0,0,0,1.39,0h5.42a19,19,0,0,1,2.05-.15c.22,0,.44.07.66.07a5.69,5.69,0,0,1,1.54-.07.65.65,0,0,0,.37,0c.22,0,.44-.15.66-.07s.22.07.29.07a1,1,0,0,1,.66-.07,1.23,1.23,0,0,0,.51,0,6.47,6.47,0,0,1,1.25,0,13.93,13.93,0,0,1,1.83-.08,10.82,10.82,0,0,0,1.61,0c.07-.07.29,0,.44,0H68c.37-.07.88,0,1.32-.07a3.12,3.12,0,0,0,.81,0c.36-.07.8.07,1.17,0,.88-.22,1.83,0,2.64-.14.66-.15,1.68.14,2.41-.08H79a16,16,0,0,1,1.83,0c1.17,0,2.27,0,3.37-.07h1.61c.37-.07,1,.07,1.47,0a6.72,6.72,0,0,1,1.75-.07h1.18a3.83,3.83,0,0,1,1-.08H93c1.32-.07,2.86-.07,4.17-.07h5.57c.88-.07,2.2.07,2.93-.07h1.25a17,17,0,0,0,2-.08c.51-.07,1.17.08,1.61,0h1.61a5,5,0,0,1,1.46-.07h2.27a6.3,6.3,0,0,0,1.18-.07,2.74,2.74,0,0,1,1.1.07c.29,0,.8-.07,1.17-.07h6.15c.07,0,.15-.08.29,0a3,3,0,0,0,1.17-.08c.37-.58.81-1.17,1.18-1.68a.58.58,0,0,0,.07-.29,12.88,12.88,0,0,0,.88-1.18c.14-.22.22-.44.36-.66.3-.51,1.18-1.39,1.25-2a4.28,4.28,0,0,0-1.68-.08c-.22-.14-.52,0-.81,0a2.55,2.55,0,0,0-.73,0,.51.51,0,0,0-.44-.07,1.62,1.62,0,0,1-.59,0c-.14-.07-.44.07-.66,0-.07,0-.36-.07-.51-.07s-.29.07-.44.07-.59,0-.88-.07c-.88-.22-1.9,0-2.78-.22a12.4,12.4,0,0,1-1.61-.08c-.3-.07-.81-.07-1-.14h-.66c-.88-.15-2-.15-2.85-.3h-.59c-.15-.07-.29-.07-.37-.14h-.58c-1-.22-2-.22-2.93-.44H110c-.73-.22-1.68-.29-2.41-.44h-.44c-2.2-.59-4.69-.88-6.89-1.47a1.26,1.26,0,0,1-.51-.07,1,1,0,0,1-.44-.15h-.44L94.7,78.3c-.22-.08-.44.07-.65,0A2.11,2.11,0,0,1,92.58,76c.29-1.32,1.32-1.83,2.78-1.46h.52a3.38,3.38,0,0,1,.58.22h.37a12,12,0,0,1,1.61.44h.22c.44.14,1,.29,1.46.44h.44c.22.07.37.14.59.22a1,1,0,0,1,.44.07c1.9.51,4,.8,5.86,1.32H108c.37.14,1,.22,1.4.36h.36c1.69.44,3.74.44,5.5.88.43.08.8.08,1.17.15h.36c1.1.29,2.42.15,3.52.44a12.39,12.39,0,0,1,1.61.07c1,.22,1.9,0,2.78.22h.81c.73.15,1.61,0,2.34.15.22.07.52-.08.66,0,1.32.14,3.22.07,4.54.07C136,75.66,138.65,71.56,141.51,67.68ZM94.19,154h-.07c0,.07,0,.07-.07.21h.07v-.07C94.19,154,94.19,154,94.19,154Zm37-63.51h-.07c-.15-.14-.59-.07-.88-.07H128.1c-.51.81-1.1,1.61-1.61,2.34a8.74,8.74,0,0,1-.66,1.18c-1,1.61-2,3.29-3.07,4.9a6.46,6.46,0,0,0-.66,1.25c-.81,1.17-1.54,2.42-2.27,3.59a7.6,7.6,0,0,0-.44.8c-.44.74-.88,1.47-1.32,2.13-.22.29-.22.58-.44.88s-.51.73-.73,1.09c-.08.15-.08.3-.15.44-1.39,2.2-2.56,4.62-4,6.82-.08.14-.08.22-.15.36-.51.88-1,1.91-1.61,2.79a3.46,3.46,0,0,0-.44,1c-.44.66-.81,1.46-1.25,2.19-.14.15-.14.37-.22.52-1.32,2.19-2.49,4.61-3.73,6.88a3.22,3.22,0,0,1-.3.73c-.21.52-.58,1-.8,1.47a1.1,1.1,0,0,0-.15.44c-.51.8-.88,1.68-1.32,2.49-.07.22-.14.37-.22.59a9.83,9.83,0,0,0-.73,1.53,6,6,0,0,1-.51.81c-.29.73-.59,1.39-1,2.12-.08.15-.22.3-.3.44-.29.66-.51,1.32-.87,2a8.55,8.55,0,0,1-.59,1.17c-.73,1.61-1.39,3.22-2.12,4.91-.08.07-.15.22-.22.29-.44,1.17-.88,2.27-1.4,3.37a5.34,5.34,0,0,0-.66,1.91h.15c1.91-3.08,3.66-6.3,5.71-9.31.15-.29.3-.66.44-1,.74-1.1,1.47-2.34,2.2-3.44.07-.15.07-.29.15-.44.44-.73,1-1.54,1.39-2.34,1.39-2.27,2.78-4.62,4.17-6.82a19.05,19.05,0,0,1,1.1-2.05c1.17-1.9,2.27-3.95,3.52-5.86a5.08,5.08,0,0,0,.44-.87c.51-.81,1-1.62,1.46-2.35.08-.14.08-.22.15-.36.37-.66.73-1.32,1.17-2,1.32-2.13,2.49-4.4,3.81-6.52.44-.73.81-1.54,1.24-2.27,1.76-2.86,3.3-5.93,5.06-8.79.07-.15.07-.37.14-.51.44-.74,1-1.61,1.4-2.42a7.11,7.11,0,0,0,.36-.73c.74-1.17,1.32-2.49,2.05-3.66A6.64,6.64,0,0,0,131.18,90.45ZM135.13,83a.07.07,0,0,0-.07-.07h-.29c-.3.15-1.47-.07-1.69.07s-.88,1.1-1.1,1.4c-.36.65-.87,1.31-1.31,2a9.29,9.29,0,0,0-.66,1.17c-.22.3-.81.88-.88,1.25,0,.07.07.07.07.15a12.34,12.34,0,0,0,2.86-.08c.8-1.32,1.54-2.78,2.27-4.17C134.55,84.23,135.13,83.57,135.13,83Zm5.57-10.54a7.64,7.64,0,0,1,.44-.81v-.22c.07-.15.15-.15.22-.29h-.07c-.22.29-.52.51-.74.8-1,1.32-1.9,2.71-2.85,4a4,4,0,0,1-.44.73,16.05,16.05,0,0,1-1.1,1.47,5.6,5.6,0,0,1-.81,1.24c.08,0,.08,0,.08.08s.14.07.29.07c.15-.15.59,0,.88-.07s.37-.08.51-.08c.88-1.46,1.54-3,2.35-4.54C139.82,74.05,140.26,73.24,140.7,72.44Zm86.79-49.08v-.73c-.07-.73-.07-1.46-.07-2.2-.22-.95-.22-1.9-.51-2.78-1.1-4.17-2.93-7.1-6.67-8.57a14.69,14.69,0,0,0-4.91-.8,2,2,0,0,1-.65,0c-.44,0-.88.07-1.25.07-.15,0-.37.07-.51.07h-.44c-1,.3-2,.44-3,.74-.14,0-.36.07-.58.07-1,.36-2.13.58-3.15,1a41.78,41.78,0,0,0-5.2,2.42c-.95.44-1.83.81-2.71,1.32-1.76,1.1-3.52,2.12-5.27,3.22S189,19.78,187.28,21l-.22.22c-.22.22-.51.29-.73.51s-.15.15-.15.22c-1.31.88-2.41,1.91-3.66,2.86-.73.51-1.39,1.24-2.12,1.76s-1,1-1.61,1.46c-.08.07-.15.22-.3.29-.73.59-1.31,1.25-2.05,1.84l-.66.65a9.76,9.76,0,0,0-.95.81,16.73,16.73,0,0,1-1.17,1.25.56.56,0,0,1-.29.14,5.32,5.32,0,0,1-.44.59,8.9,8.9,0,0,0-1.25,1.17c-.36.37-.66.59-1,1a.88.88,0,0,1-.29.22c-.59.81-1.39,1.39-2.05,2.2-.15.22-.52.37-.66.66-.74,1-1.69,1.61-2.42,2.56l-.44.44c-.51.73-1.17,1.25-1.68,1.91-.22.22-.44.36-.66.58-.59.88-1.39,1.61-2,2.42a5.87,5.87,0,0,0-.66.66c-.59.73-1.17,1.39-1.76,2.12a4.08,4.08,0,0,0-.51.51c-1.32,1.76-2.93,3.3-4.18,5.13-.29.37-.73.73-1,1.17-.73,1-1.54,1.91-2.27,2.93-.29.44-.73.88-1,1.32-.14.22-.14.37-.29.59a15.3,15.3,0,0,1-1,1.9c-.15.29-.15.59-.29.88-1.54,2.93-2.93,6-4.47,8.94-.59,1-1,2.12-1.61,3.07a17.32,17.32,0,0,1-.81,1.61c-.22.37-.88,1.32-.81,1.76a23,23,0,0,0,2.35-.15h.66c.22-.07.58-.07.8-.14a10.27,10.27,0,0,0,1.47-.07c1-.22,2.27-.15,3.29-.37H149c.73-.15,1.68-.15,2.41-.37h.52c1-.22,2.19-.29,3.22-.51h.59c.8-.22,1.68-.29,2.41-.51h.37c2-.52,4.25-.66,6.15-1.25.51-.14.95-.22,1.39-.36h.52c.29-.15.65-.22,1-.37H168c1-.29,2.19-.59,3.15-.88a.56.56,0,0,0,.36-.07c1.91-.59,4-1.17,5.86-1.76.29-.07.51-.07.88-.15a7.09,7.09,0,0,1,1-.44c.44-.14.73-.14,1.09-.29,1.32-.59,2.86-1,4.18-1.61.15,0,.29-.07.44-.07,1.83-.74,3.73-1.54,5.49-2.35.51-.22.95-.36,1.47-.58.14-.08.22-.15.36-.22s.22,0,.37-.08c3-1.61,6.08-3.07,8.93-4.76.52-.36,1-.73,1.54-1a59.36,59.36,0,0,0,16.56-15.09c.8-1.17,1.53-2.42,2.34-3.66a9.87,9.87,0,0,0,.59-1.17,13.36,13.36,0,0,0,1.17-2.13c.66-1.61,1.32-3.22,1.9-4.91,0-.14.07-.22.07-.36.59-1.69.88-3.59,1.32-5.42v-.44c.15-.51.15-1.25.3-1.83v-.59A8.7,8.7,0,0,0,227.49,23.36Z"/><path class="cls-1" d="M202.52,102.25a.86.86,0,0,1-.3-.74v-.8a11.75,11.75,0,0,1,1-2.42l.29-1c.08-.15.22-.22.22-.37a.59.59,0,0,0,.08-.36c.14-.3.43-.59.58-1l1.76-4a5,5,0,0,1,.58-.88,24.54,24.54,0,0,1,1.4-2.86c.51-.95.88-1.9,1.46-2.78a7.21,7.21,0,0,1,.44-1.1c.44-.58.73-1.32,1.17-2a4.49,4.49,0,0,1,.81-1.24c.14-.07.36-.07.51-.22a1.28,1.28,0,0,1,1.39.81L214,82v.22a6,6,0,0,1-.74,1.1,9.15,9.15,0,0,0-.66,1.1,12.16,12.16,0,0,1-.8,1.1c-.07.07-.07.22-.15.36-.29.52-.73,1-1,1.47l-.81,1.54a4.54,4.54,0,0,0-.37.58c-.36.66-.73,1.39-1.17,2a9,9,0,0,1-.44,1c-.44.66-.73,1.46-1.17,2.27a3.92,3.92,0,0,0-.66,1.61h.08c.14-.37.51-.59.8-.88.51-.73,1.1-1.39,1.69-2.12a11.61,11.61,0,0,1,.8-1c.73-1,1.61-1.75,2.27-2.71l.66-.58a5.85,5.85,0,0,1,1.1-1.25l.29-.22a5.68,5.68,0,0,1,1.17-1.09l1-1,.51-.22a.77.77,0,0,1,.37-.29c.22-.15.51-.07.73-.15a1.49,1.49,0,0,1,.73-.14A1.4,1.4,0,0,1,219,85a1.45,1.45,0,0,1,.44.52,5.57,5.57,0,0,1,.66.58c.21.3.14.59.29,1,0,.14.14.29.14.36v.66a7.27,7.27,0,0,0,.22,1.32.26.26,0,0,0,.22.08,6.32,6.32,0,0,1,.88-.52,6.74,6.74,0,0,1,1.1-.88l.59-.14a1.7,1.7,0,0,1,1.46,1l.08.52a1.91,1.91,0,0,1-.22,1,6.43,6.43,0,0,1-1,1c-.15.07-.22.29-.37.44a5.87,5.87,0,0,1-1.31.88c-.15.07-.3.29-.52.36l-.58.15a4.45,4.45,0,0,0-.74.22h-.21a3.53,3.53,0,0,1-1-.29l-.44-.15c-.59-.22-.81-.66-1.1-1.32-.07-.22-.29-.36-.36-.66a24,24,0,0,1-.22-2.49h-.15a1.64,1.64,0,0,1-.44.3l-.81.73-.58.51a8.22,8.22,0,0,0-1,1.17l-.73.66c-.59.73-1.24,1.32-1.83,2.05-1.32,1.76-2.78,3.37-4.1,5.2a11.65,11.65,0,0,0-.81,1,12.16,12.16,0,0,1-1.39,1.39,2,2,0,0,1-.81.73,2.16,2.16,0,0,1-1,.22A1.09,1.09,0,0,1,202.52,102.25Z"/><path class="cls-1" d="M233.57,117a9.58,9.58,0,0,1,.51-2.34c.44-1.25.37-2.13.81-3.23v-.29a42.3,42.3,0,0,0,1.25-7,13.87,13.87,0,0,1,.29-3,.43.43,0,0,0-.08-.3l.15-.8-.07-.59c.07-.07.07-.14.07-.29V97.34l-.07-.44.07-.81a17.64,17.64,0,0,0-.51-3.51,9.13,9.13,0,0,0-.73-3.15,22.07,22.07,0,0,0-2.79-5.35,23.13,23.13,0,0,0-6.22-5.34c-2.71-1.4-3.52-2.35-6.3-2.64l-1.25.07h-2.27l-.44.08h-3.66a7.63,7.63,0,0,0-1.32.14h-3.44a31.61,31.61,0,0,1-3.73.15l-.74.07-.73-.07-.37.07h-2.34l-1.1.07-1.39-.07-1.24.07a26.56,26.56,0,0,0-3.74-.36A5.73,5.73,0,0,0,191,76a1.88,1.88,0,0,1-1-1.54,2.66,2.66,0,0,1,.66-1.9,11.13,11.13,0,0,1,3-1h.44a21.3,21.3,0,0,1,4-.59,29.37,29.37,0,0,0,4.54-.22l.74.08a1.46,1.46,0,0,1,.58-.08l5.06.15a2.06,2.06,0,0,0,.65.07,19.17,19.17,0,0,1,3.89.51,1.3,1.3,0,0,0,.51.08,1.26,1.26,0,0,1,.51.07,52.46,52.46,0,0,1,7.47,1.91,12.19,12.19,0,0,0,1.61.58l5.35.07a4.43,4.43,0,0,1,1.17.08.88.88,0,0,1,.44-.08l2.93.08a4.77,4.77,0,0,1,1,.07l.36-.07.37.07,3.52-.07.43.07c2.13,0,2.06.07,4.55.07l.87.08,1.91-.08h3.88a2.91,2.91,0,0,0,.81-.07c3.07-6.74,3.44-8.06,6.66-15.31.59-1.32,1.17-2.56,1.83-3.81.37-.87.81-2.19,1.83-2.41l.3-.15c.88,0,1.68.37,1.68,1.39a5.09,5.09,0,0,1-.88,1.91c-.36.51-.51,1.1-.88,1.68-2,3.88-4.1,7.84-5.86,12-.8,1.47-.88,1.91-1.53,3.23-.15.44-.59,1-.59,1.46l12.74.15.52.07.88-.07.51.07c7.91,0,11.2.15,19.19.15h26.95l16.77-.08,1.47.08,1-.15,6.16-.07a12.82,12.82,0,0,0,1.75-.08h10.4a9.54,9.54,0,0,0,1.54-.14l.95.07.59-.07c2.71,0,1.25,0,4-.08a65.5,65.5,0,0,0,7-.29.94.94,0,0,1,.95.51,1.11,1.11,0,0,1,.29.74,1.28,1.28,0,0,1-1.46,1.24,8.53,8.53,0,0,1-1.25-.14c-3.88-.08-1.9-.08-5.56-.08A16.17,16.17,0,0,1,357.5,76l-1.69.07a11.41,11.41,0,0,1-1.54-.07,4.72,4.72,0,0,0-.95.07,3.69,3.69,0,0,0-.88-.07L351,76l-.66.08L348.64,76h-7.7l-.29-.07-.95.07a5.4,5.4,0,0,0-1.1-.07H255.91l-.95-.07-.44.07h-1.39a24.42,24.42,0,0,0-1.32,2.86c-1.17,2.71-1.61,3.44-2.86,6.59l-2.85,6.52c-.08.44-.3.44-.3.8a13.92,13.92,0,0,0-1,2.2c-2,4.83-3.44,9.15-5.35,13.91a25,25,0,0,0-2,6.3l-.74,2.64a2.08,2.08,0,0,1-1.53,1.1C234,118.58,233.57,118,233.57,117Zm-11.5-14.28a.7.7,0,0,1-.36-.15c-.74,0-.74-.14-1.32-.88-.73-1-.37-.58-.59-1.68a9.61,9.61,0,0,1,.22-2,61.35,61.35,0,0,1,3.37-10A17.61,17.61,0,0,1,225,85.18a1.16,1.16,0,0,1,.95-.59,1.26,1.26,0,0,1,1.4,1.18c0,.44-.15.44-.3.88a11.94,11.94,0,0,1-.58,1.53,23.72,23.72,0,0,0-2.05,4.54c-.37.88-.74,1.69-1,2.57-.22.36-.15.73-.29,1.17a7.88,7.88,0,0,0-.66,2.86l.07.51.15.07.22-.07c.14-.15.66-.29.8-.51a2,2,0,0,0,.81-.52,24,24,0,0,0,3.81-3.15c1.24-1,2.42-2.41,3.59-3.51a13.44,13.44,0,0,1,1.75-1.83,2.45,2.45,0,0,1,.59-.66,23.58,23.58,0,0,1,1.83-1.91,13.07,13.07,0,0,1,1.25-1.61c2.71-3,1.32-1.61,3.88-4.39.29-.73.66-.81,1.1-1.54a13.56,13.56,0,0,0,1.68-2c.73-1.1,1.69-1.9,2.42-3a6.45,6.45,0,0,0,.73-1c.15-.29.51-.51.73-.8A12.05,12.05,0,0,1,249,71.92c.29-.29.44-.73.73-1.09.88-.66.44-.44,1-1.32.08-.15.37-.37.52-.59,1.83-2.71,2.56-3.15,4.1-5.71a13.29,13.29,0,0,0,1-1.1l.95-1.39c.15-.08.15-.15.22-.3l1.76-2.63c.51-.51.15-.44.81-.66a1.23,1.23,0,0,1,1.31.95,1,1,0,0,1-.07.44c-.07.22-.29.37-.37.51-2,2.57-2.34,2.79-4.39,5.5a11.21,11.21,0,0,1-1.1,1.53c-.37.52-.73.88-1.1,1.47a5.23,5.23,0,0,0-1.24,1.61c-.37.66-1,1.1-1.39,1.76l-1.47,1.9A13.79,13.79,0,0,0,249,74.41a.61.61,0,0,0-.37.37c-.88,1.39-2,2.56-3,3.88a3,3,0,0,1-.66.66,12.61,12.61,0,0,1-1.17,1.61l-.52.66c-1.46,1.61-.66,1-2.19,2.64-.3.44-.74.8-1,1.24l-.81,1.1c-.07.08-.14.08-.22.22-.65,1-1.61,1.83-2.34,2.79l-2.27,2.63a23.69,23.69,0,0,1-1.76,2A8.77,8.77,0,0,1,231.08,96c-.58.51-1,1.17-1.46,1.68-.66.51-1.1,1.17-1.69,1.69l-2.63,2.19c-.59.3-1.1.74-1.76,1l-1.17.22ZM226,81.67l-.14-.59.07-.44a3.56,3.56,0,0,1,1-1.47c.22-.14.58-.07.8-.21a2.13,2.13,0,0,1,2.2,1.24,2.25,2.25,0,0,1,.15.66,2.13,2.13,0,0,1-1.4,2l-.51.07A2.6,2.6,0,0,1,226,81.67Zm13.92,20c.15-.29.15-.66.29-1,3.08-6.73,5-12.45,7.84-18.53l1.61-3.88a16.35,16.35,0,0,1,.73-1.61,1.61,1.61,0,0,0,.22-.66l-.44-.07H236.06c-2.85,0-5.56.07-8.27.15v.07c1,.66,1.17.66,2.27,1.39,6.81,5.13,7.91,9.67,9.08,15.16,0,1.61.29,1.91.29,3.59a2.35,2.35,0,0,1,.07.73v.81l.08.29a10.94,10.94,0,0,0-.08,1.69v1.53l-.14,1.1h.07C239.58,102,239.65,102,239.87,101.66Z"/><path class="cls-1" d="M259,103a1.22,1.22,0,0,1-.59-1.1,5.76,5.76,0,0,1,.81-2.34c.8-1.83,1.75-3.67,2.63-5.57l.81-1.61a2.5,2.5,0,0,0,.36-.81h-.07v-.07l-.07.07c-.29.08-.59.52-.81.81a25.39,25.39,0,0,0-2,2l-.15.07c-.22.15-.37.44-.59.59s-.29.22-.36.36c-.22.3-.52.44-.74.74l-1,1a6.76,6.76,0,0,1-.81.8c-.88.74-1.61,1.54-2.49,2.2-.14.08-.22.3-.36.37a10.2,10.2,0,0,1-1.91,1.17l-.58.15a2.27,2.27,0,0,1-.74.14l-.36-.07a3.16,3.16,0,0,1-.95-.59,1.52,1.52,0,0,1-.52-1v-.8a4.26,4.26,0,0,1,.22-1.1,16,16,0,0,1,.74-2,48.14,48.14,0,0,1,2.63-5.57c.08-.15.08-.37.22-.51.81-1.39,1.54-2.93,2.42-4.32l.36-.74c.3-.44.66-.8.88-1.17s.37-.66.81-.73h.15l.44.07a1.79,1.79,0,0,0,.36.44c0,.66-.44,1-.58,1.47l-1.1,2.34A.62.62,0,0,0,256,88a22,22,0,0,0-1.17,2.27l-1,1.9-.22.59a21.83,21.83,0,0,0-1.1,2.34c-.29.59-.59,1.17-.81,1.76a1.13,1.13,0,0,0-.07.51,4.68,4.68,0,0,0-.44,1.25h.15a.4.4,0,0,1,.29-.08c.07-.07.15-.22.22-.22l1.54-1c1.32-1,2.41-2.27,3.73-3.22.44-.3.73-.81,1.17-1.18s.74-.73,1.18-1.09l.22-.3a2.72,2.72,0,0,0,.73-.66,14,14,0,0,1,1-1,26.47,26.47,0,0,0,1.91-2.05l.22-.15c.58-.73,1.32-1.46,1.9-2.27a11.75,11.75,0,0,0,.88-1A8.64,8.64,0,0,1,267.56,83c.22-.14.44-.14.73-.29h.07a1.35,1.35,0,0,1,1.54,1.39,2.61,2.61,0,0,1-.44,1.39c-.73,1.25-1.61,2.42-2.42,3.59-.51.88-1,1.76-1.46,2.57l-.88,1.68a2.38,2.38,0,0,0-.51,1h.14a1.9,1.9,0,0,0,.66-.73c.37-.59.88-1,1.32-1.61a3.35,3.35,0,0,1,.59-.51,11.55,11.55,0,0,1,1.61-1.76,22.93,22.93,0,0,1,3.15-2.86,7.55,7.55,0,0,1,1.61-1,.86.86,0,0,1,.44-.08,2.62,2.62,0,0,1,.88-.22h.14l.66.22a2.11,2.11,0,0,1,.81.3,4.43,4.43,0,0,1,.95,1.61,3.62,3.62,0,0,1,.15,1.1L277.22,90a10.32,10.32,0,0,0-.36,2.2v.22H277c.59-.07,3.59-2.78,4.11-3.15.07-.07.14-.22.29-.29a1.47,1.47,0,0,1,.51-.07,1.56,1.56,0,0,1,1.47,1l.07.29a1.89,1.89,0,0,1-.44,1,42.75,42.75,0,0,1-3.3,2.93,10.64,10.64,0,0,1-2.63,1.54,5.82,5.82,0,0,1-1.17.07h-.44a3.49,3.49,0,0,1-1.69-1.39,4.05,4.05,0,0,0-.14-.81,4.11,4.11,0,0,1-.15-1.1l.15-2.19a5.35,5.35,0,0,0,.14-1.17l-.07-.59h-.15c-.36.22-.73.22-1,.44-.81.51-1.47,1.17-2.27,1.68A11.35,11.35,0,0,0,269.09,92c-.22.3-.58.44-.8.73l-.88,1.1a1.44,1.44,0,0,1-.37.37l-1.39,1.68c-1,1.4-1.9,2.86-2.85,4.4l-1.25,1.83c-.22.37-.37.73-.66.88a2.16,2.16,0,0,1-1.9,0Zm.14-21-.51-.08c-.81-.14-.81-.29-1-1l-.08-.59.08-.36a2.08,2.08,0,0,1,.8-.81l.44-.14a1.59,1.59,0,0,1,1.68,1l.15.58A1.64,1.64,0,0,1,259.35,82Zm5,12.52c-.07,0-.07,0-.14.15H264Z"/><path class="cls-1" d="M277.3,102a1.45,1.45,0,0,1-.3-.58,2,2,0,0,1-.44-.59,4.78,4.78,0,0,1-.21-1.39,10.56,10.56,0,0,1,.87-3.74c1.76-4.1,4-7.32,7.77-9.52h.29a7.75,7.75,0,0,1,1.32-.66l.73-.14h.59l.51-.08.88.08a7.73,7.73,0,0,0,1.1.51A3.42,3.42,0,0,1,292,88.7a.57.57,0,0,1,.15.36h.14a6.53,6.53,0,0,0,1.1-1.39c.51-.66,1.17-1.32,1.69-2a8,8,0,0,1,1.68-2.12,2.19,2.19,0,0,1,1-.37,1.41,1.41,0,0,1,1.31,1,1.32,1.32,0,0,1,.08.51,1.85,1.85,0,0,1-.44,1.1c-.08.15-.08.3-.15.37-.44.66-1,1.32-1.46,2a40.37,40.37,0,0,0-4,7.17,8.93,8.93,0,0,0-.88,3l.07.44h.15a3,3,0,0,0,1-.52,11.43,11.43,0,0,0,2.78-2.27l2.2-2.05c.51-.73,1.25-1.32,1.83-2.12.08-.15.37-.29.44-.44,1.25-1.68,2.64-3.22,3.88-4.83.44-.66,1-1.25,1.39-1.84a3.28,3.28,0,0,1,.66-.73,1.94,1.94,0,0,1,.74-.14l.44.07a1.87,1.87,0,0,1,1.17,1.61,1.12,1.12,0,0,1-.08.51c-.29.66-.73,1.25-1,1.83-.66,1.25-1.39,2.35-2,3.67l-.73,1.24c-.08.15-.22.22-.22.44v.07H305a12.32,12.32,0,0,1,.95-.87,8.16,8.16,0,0,1,1.76-1.76l.08-.15a3.66,3.66,0,0,1,.8-.66,5.87,5.87,0,0,1,.66-.66,47.62,47.62,0,0,1,3.88-2.85,6.84,6.84,0,0,1,2.42-.66h.22a3.07,3.07,0,0,1,.66.36,1.39,1.39,0,0,1,.8.59,2.62,2.62,0,0,1,.37,1.54,7,7,0,0,1-.51,2.49c-.81,1.9-1.69,3.66-2.42,5.71a9.77,9.77,0,0,0-.73,2.71v.29h.22a1.89,1.89,0,0,0,.66-.29A22.15,22.15,0,0,0,317,97.71a40.38,40.38,0,0,0,7.62-6.89c.44-.44,1.17-1.68,2.13-1.68l.44.07a1.66,1.66,0,0,1,.87,1.46,1.17,1.17,0,0,1-.36.81l-1.32,1c-.51.44-2,2.35-2.56,2.78a10.42,10.42,0,0,1-.88.88c-1,.74-1.83,1.62-2.79,2.35-.14.07-.22.29-.36.36-1,.74-2,1.62-3,2.27a10,10,0,0,1-2,1.1l-.44.08a2.26,2.26,0,0,1-.73.14h-.22c-.15,0-.3-.14-.44-.14-.3-.15-.59-.08-.81-.22a3.52,3.52,0,0,1-1-1.61l.07-2c.8-2.49,1.68-4.76,2.56-7.11a12.51,12.51,0,0,0,.73-2.19,1.66,1.66,0,0,0,.22-.66l-.07-.15-.15-.07h-.07a4.52,4.52,0,0,0-.88.44,13.6,13.6,0,0,0-2.05,1.24c-.22.15-.36.44-.58.59A14.25,14.25,0,0,0,309,92.21l-1.17,1.25c-.44.58-1,1-1.39,1.54l-3.3,4.54-1,1.61-.37.36a1.7,1.7,0,0,1-1.39,1l-.37-.08c-.66-.22-1.54-.8-1.54-1.68l.08-.37c.07-.29.29-.58.36-.88.66-1.46,1.47-2.85,2.13-4.32.29-.58.88-1.24.88-2a21.09,21.09,0,0,0-2.05,2.42l-.3.22A16.94,16.94,0,0,1,298,97.63c-.14.15-.29.22-.36.37a18.94,18.94,0,0,1-3.08,2.85l-.36.3c-.15.14-.22.07-.37.14l-.37.3-.51.14a2.14,2.14,0,0,1-.88.22l-.73-.14a3.09,3.09,0,0,1-.81-.22,2.25,2.25,0,0,1-.73-.88l-.36-.51v-.3l-.08-1.1a8.75,8.75,0,0,1,.59-2.56c.14-.29.14-.59.29-.88a7,7,0,0,0,.59-1.46c-.08,0-.08,0-.08.07-.36.07-.51.44-.8.66l-1.76,1.9a34.36,34.36,0,0,1-6.37,5.42,5.21,5.21,0,0,1-2,.66h-.15a2.5,2.5,0,0,0-.8.08A7.61,7.61,0,0,1,277.3,102Zm3.29-2.63a7.9,7.9,0,0,0,2.2-1.18A36.42,36.42,0,0,0,290.63,91c-.3-1.47-.52-2.79-2.35-2.79-.14.15-.51.08-.73.15a7.76,7.76,0,0,0-1,.29l-.3.22-.36.08a14.66,14.66,0,0,0-5,4.76l-.81,1.61a7.54,7.54,0,0,0-.88,3.29,4.44,4.44,0,0,0,.07,1,.86.86,0,0,0,.37.07A2.12,2.12,0,0,0,280.59,99.32Z"/><path class="cls-1" d="M340.8,89.06c.22.81-.51,1.17-1,1.39s-1.17.66-1.68.88a14.41,14.41,0,0,0-1.61.74c-.74.43-1.61.8-2.35,1.24-.14.15-.29.07-.44.22-.95.51-2.05,1-2.93,1.61-.29.15-.66.22-.95.37a4.57,4.57,0,0,0-.66.51c-.36.22-.73.22-1,.44s-.74.37-1.1.59c0,0-.07.14-.15.14s-.29.08-.44.15c-.51.37-1.24.66-1.76,1-.14.08-.29.08-.43.15l-.15.15c-.15.07-.22.07-.37.14a1.75,1.75,0,0,0-.44.88c-.14.3-.44.66-.58.95-.22.59-.37,1-.59,1.62l-.29.29a.59.59,0,0,1-.07.37c0,.07-.15.14-.15.21a.59.59,0,0,0-.07.37c-.08.15-.22.22-.3.37a.8.8,0,0,1-.07.36c0,.08-.15.15-.22.22v.3a1.62,1.62,0,0,0-.29.36v.3l-.22.22c-.08.07-.08.21-.08.36s-.22.22-.29.37,0,.29-.15.44-.07.07-.14.14v.37c-.08.15-.22.22-.3.37V108l-.29.29a1,1,0,0,1-.07.44.25.25,0,0,0-.15.07c-.07.15,0,.3-.07.52l-.29.29v.37c-.08.07-.22.14-.22.22s0,.22-.08.36-.22.22-.29.3v.36c-.07.15-.22.22-.29.37v.29c-.08.15-.22.22-.3.37a.66.66,0,0,1-.07.36c0,.08-.15.15-.22.3s-.07.22-.07.36l-.22.22v.37a1.32,1.32,0,0,1-.29.29v.37l-.3.29v.37c-.07.14-.22.22-.22.29s-.07.29-.14.44-.15.15-.22.22a.86.86,0,0,1-.08.44c-.07.07-.14.07-.22.14v.44l-.22.22c-.07.08,0,.3-.07.44s-.22.22-.29.37a.76.76,0,0,1-.08.37c0,.07-.14.22-.22.29s0,.29-.07.37-.15.07-.15.14a1,1,0,0,0-.07.44,1.49,1.49,0,0,0-.29.37.8.8,0,0,1-.07.36c0,.08-.15.15-.22.3s0,.29-.08.44l-.22.22v.29c-.07.15-.22.22-.29.29v.37a.91.91,0,0,0-.22.29c-.07.07-.07.29-.07.44s-.15.07-.22.15,0,.29-.08.44-.22.22-.29.36v.37c-.07.07-.22.14-.29.29v.37c-.08.14-.22.22-.3.36s0,.3-.07.44-.15.08-.22.15v.37c-.07.14-.22.22-.29.29v.37c-.07.14-.22.21-.29.36v.29c-.08.15-.22.3-.3.44v.22c-.07.15-.22.22-.29.37v.29c-.07.15-.22.3-.29.44v.3a1.35,1.35,0,0,1-.3.29,1,1,0,0,1-.07.44c0,.14-.15.22-.22.36v.37c-.07.07-.22.15-.22.22a.84.84,0,0,0-.07.37c-.08.14-.22.22-.3.36v.3c-.07.14-.21.29-.29.43v.3c-.07.07-.22.14-.22.22a1,1,0,0,0-.07.44l-.29.29a.86.86,0,0,1-.08.44c0,.07-.14.15-.22.29v.37c-.07.14-.22.22-.29.36a.7.7,0,0,1-.07.37c0,.07-.15.15-.22.22s-.08.29-.08.51c-.07,0-.14.08-.22.15v.44c-.07.15-.22.22-.29.37V138c-.07.14-.22.22-.29.36a.62.62,0,0,1-.08.37c0,.07-.14.15-.14.22a1,1,0,0,0-.07.44c-.08.07-.22.22-.22.29a3.34,3.34,0,0,0-.15.52,1.61,1.61,0,0,0-.22.36.56.56,0,0,1-.07.29,33.1,33.1,0,0,0-1.69,4,1.49,1.49,0,0,1-.29.37v.37c-.07.14-.22.22-.22.29a1,1,0,0,0-.07.44c-.08.07-.22.22-.22.29a3.19,3.19,0,0,0-.15.51c0,.08-.15.15-.22.22v.44L302,148c-.07.15,0,.3-.07.44s-.22.22-.3.37v.29c-.07.07-.14.22-.22.29a1.52,1.52,0,0,0-.07.52c-.07.07-.22.22-.22.29a.7.7,0,0,0-.07.37l-.22.22c-.08.14-.08.36-.15.51s-.15.22-.15.29a1,1,0,0,0-.07.44c-.07.15-.22.29-.29.44-.15.44-.29.81-.44,1.25,0,.14-.07.29-.07.43-.08.37-.22.81-.3,1.1a1,1,0,0,0-.07.44,87.15,87.15,0,0,1-2.71,9.08c-.29.66-.59,1.91-1.17,2.35a1.75,1.75,0,0,0-.51.29,1.82,1.82,0,0,1-1.4.07c-1-.43-1-1.53-.58-2.63s1-2.27,1.54-3.44c.14-.44.22-.81.36-1.25.37-1,.81-2.05,1.1-3a4.74,4.74,0,0,0,.22-1c1.47-3.88,2.42-8.05,3.66-12.23.08-.29.08-.59.15-.95.58-1.61.8-3.52,1.32-5.2.07-.29,0-.59.07-1,.37-1.18.51-2.49.81-3.59.07-.44.07-.81.14-1.25.3-1,.3-2.34.59-3.44.07-.37-.07-.66.07-1s.08-1,.15-1.39v-.58a5.18,5.18,0,0,0,.07-1,4,4,0,0,1,.07-1,.56.56,0,0,0-.07-.36,5.76,5.76,0,0,0,0-1.1v-.66a17.53,17.53,0,0,0-.14-1.91c-.15-.58-.22-1.17-.37-1.75a6,6,0,0,0-3.15-3.74,18.59,18.59,0,0,0-1.83-.51h-1a6,6,0,0,0-2.56.07,7.42,7.42,0,0,0-1.25.51c-.87.44-1.75.81-2.63,1.18-.44.14-.81.22-1.17.36l-2.2.88a1.26,1.26,0,0,0-.51.07,2.59,2.59,0,0,1-1.4.22,1.88,1.88,0,0,1-1.46-1.39,1.73,1.73,0,0,1,.44-1.17,3.5,3.5,0,0,0,.51-.51,5.8,5.8,0,0,1,1.32-.73,23.07,23.07,0,0,1,5.35-2.13h.44c.29-.07.73-.22,1-.29a1.11,1.11,0,0,0,.51-.07,11.23,11.23,0,0,1,2.35-.22h1c.66.07,1.61-.59,2.13-.81,1.39-.59,2.71-1.24,4.17-1.76.15-.07.22-.22.37-.29,1.46-.66,2.85-1.25,4.17-2,.15-.07.37-.07.52-.14a19.86,19.86,0,0,1,2.27-1.1l.22-.22c.14-.08.29-.08.44-.15a7.7,7.7,0,0,1,.87-.51,27,27,0,0,0,3.3-1.69c.15-.07.29-.07.44-.14l1.25-.74c.14-.07.29-.07.43-.14.44-.22.88-.51,1.25-.73.15-.08.29-.08.44-.15.58-.37,1.24-.66,1.76-1,.14-.07.29-.07.44-.14s.14-.15.22-.22a10.68,10.68,0,0,0,1.24-.59c.29-.22.29-.73.44-1.1a5.76,5.76,0,0,0,.51-1.24,1.71,1.71,0,0,0,.3-.37,5.18,5.18,0,0,1,.36-1c0-.08.15-.15.22-.3a.88.88,0,0,1,.08-.44,4.76,4.76,0,0,0,.43-.88c.44-.87.74-1.83,1.18-2.71a.93.93,0,0,0,.07-.43c.07-.15.22-.22.29-.37a13.08,13.08,0,0,1,.66-1.76c0-.07.15-.22.15-.29.15-.29,0-.51.07-.73a1.76,1.76,0,0,1,.29-.37c.37-1,.74-1.83,1.18-2.71s.58-1.46.88-2.2a3.57,3.57,0,0,1,.51-1.24,1.91,1.91,0,0,1,.66-.44.4.4,0,0,1,.29-.08,2.07,2.07,0,0,1,.73.08,1.63,1.63,0,0,1,1,1.9A7.06,7.06,0,0,1,332,82.4c-.22.36-.29.66-.51,1-.81,1.32-1.47,2.71-2.27,4-.08.15-.08.29-.15.44a19.71,19.71,0,0,1-1,1.83,5,5,0,0,0-.14.51,10.79,10.79,0,0,1-.73,1.18l-.44,1.09a9.77,9.77,0,0,0-.52.88.59.59,0,0,1-.07.3c0,.07-.15.22-.22.29-.15.37-.22.66-.37,1a3,3,0,0,0-.66,1.39.25.25,0,0,1,.22.08,8.74,8.74,0,0,1,1.18-.66c1.09-.66,2.27-1.32,3.37-2a.8.8,0,0,0,.36-.07c1.17-.74,2.57-1.47,3.74-2.2.44-.29,1-.44,1.39-.73.22-.15.44-.37.66-.52s.58-.22.88-.36c.07-.08.07-.15.14-.22.59-.29,1.1-.59,1.69-.88a2.87,2.87,0,0,1,.8-.51A1.24,1.24,0,0,1,340.8,89.06ZM321.24,100.2H321c-.22.36-.73.43-1.1.58,0,.07-.07.15-.15.22s-.22.07-.36.07l-.73.52c-.15,0-.3.07-.44.07a.82.82,0,0,0-.15.22c-.15.07-.29.07-.37.15s-.14.14-.22.14a.4.4,0,0,1-.29.08c-.07.07-.15.14-.15.22s-.29.07-.43.07c-1,.58-2.06,1-3,1.68-.14.08-.29,0-.44.08-1.1.58-2.19,1.24-3.37,1.75a5.18,5.18,0,0,0-.8.52c-.3.14-.66.22-1,.36a11.73,11.73,0,0,1-1.32.81,1,1,0,0,1-.44.07c-.07.08-.07.15-.14.22s-.22,0-.29.08-.22.14-.37.22c-.88.43-1.69.8-2.56,1.24-.37.15-.74.44-1.1.59a.7.7,0,0,0-.37.07c-.22.07-.51.37-.81.44s-.36,0-.36.29c.58.37,1.24.59,1.76,1a7.87,7.87,0,0,1,2.78,3.37c.37.88.51,1.83.81,2.79v.44a3.67,3.67,0,0,0,.14.87V120a2.31,2.31,0,0,1,.08,1s-.08.22,0,.29v2c-.08.58-.08,1.31-.22,1.9v.73c-.22.74-.15,1.54-.37,2.2-.07.37.07.66-.07,1-.22.88-.3,2-.52,2.86v.51c-.22.81-.29,1.69-.51,2.57-.59,2.12-.81,4.39-1.46,6.51-.15.59-.22,1.18-.37,1.69a.65.65,0,0,0,0,.51h.07c.08-.07.15-.07.22-.15a.83.83,0,0,1,.08-.43c0-.08.14-.15.22-.22a.7.7,0,0,1,.07-.37c0-.15.15-.22.22-.29v-.3c.07-.14.22-.29.22-.36a.7.7,0,0,0,.07-.37c.07-.15.22-.22.29-.37v-.29l.3-.29v-.44c.07-.07.22-.15.22-.22a.45.45,0,0,0,.07-.29c.07-.15.22-.3.29-.44a.62.62,0,0,1,.08-.37c0-.07.14-.15.22-.22a1.47,1.47,0,0,1,.07-.51l.22-.22v-.37c.07-.07.22-.14.29-.29v-.29c.08-.15.22-.22.3-.37v-.37c.07-.14.21-.22.29-.36v-.29c.07-.15.22-.22.29-.37v-.29a1.7,1.7,0,0,0,.29-.37c0-.07,0-.29.08-.37s.14-.14.14-.22.08-.29.15-.44.15-.14.22-.29v-.36l.22-.22a1,1,0,0,0,.07-.44c.08-.08.22-.15.22-.3s.08-.29.15-.44l.22-.22v-.36c.07-.15.22-.22.29-.3v-.43a.24.24,0,0,0,.15-.08c.14-.14.07-.29.14-.51l.3-.29a1,1,0,0,1,.07-.44c0-.08.15-.15.22-.37v-.29c.07-.08.22-.15.22-.3a.56.56,0,0,0,.07-.36l.3-.29c.07-.15,0-.3.07-.44s.15-.15.22-.15v-.51c.07-.08.22-.15.22-.22a.7.7,0,0,0,.07-.37c.08-.15.22-.22.22-.29a.53.53,0,0,0,.08-.37l.29-.29v-.44c.07-.15.22-.22.29-.29v-.22a.63.63,0,0,1,.22-.37.84.84,0,0,0,.07-.37c.08-.14.22-.29.3-.44v-.29c.07-.14.22-.22.29-.36v-.37c.07-.07.22-.15.29-.29v-.3a1.63,1.63,0,0,0,.3-.36c0-.08,0-.3.07-.37s.15-.15.15-.22a1,1,0,0,0,.07-.44l.29-.29v-.37l.22-.22a2.93,2.93,0,0,1,.08-.36c.07-.15.22-.3.29-.44s0-.3.07-.44.15-.08.22-.15a1,1,0,0,1,.07-.44c0-.07.15-.14.22-.22v-.44c.08-.07.22-.14.22-.22a.84.84,0,0,0,.08-.44l.29-.29c.07-.15,0-.37.07-.44l.22-.22v-.36c.08-.15.22-.15.22-.3s.08-.22.08-.36.22-.22.29-.37a.7.7,0,0,1,.07-.37c0-.14.15-.22.22-.36v-.22c.08-.15.22-.22.22-.37s.08-.22.08-.36.21-.15.21-.22.08-.3.15-.44.15-.22.22-.3v-.36c.07-.15.22-.22.29-.37v-.29c.08-.08.22-.15.22-.3s.08-.22.08-.36l.29-.29v-.44l.29-.3V107l.3-.3a1,1,0,0,1,.07-.44c0-.07.15-.14.22-.22v-.36c.07-.15.22-.15.22-.29s.07-.3.14-.44.15-.15.15-.22.07-.3.15-.44.07-.08.14-.15,0-.29.08-.51.22-.22.22-.3.07-.29.14-.43.15-.22.22-.3,0-.29.08-.36.14-.15.22-.3a1,1,0,0,1,.07-.44c0-.07.15-.14.15-.14A.86.86,0,0,0,321,101C321.1,100.71,321.32,100.56,321.24,100.2Zm10.4-25A3.06,3.06,0,0,1,333,73.39c.3,0,.37.15.59.29.59.22,1,.29,1.32.81a1.81,1.81,0,0,1-1.25,2.71H333A1.87,1.87,0,0,1,331.64,75.15Z"/><path class="cls-1" d="M335.09,102a1.45,1.45,0,0,1-.3-.58,2,2,0,0,1-.44-.59,4.8,4.8,0,0,1-.22-1.39,10.55,10.55,0,0,1,.88-3.74c1.76-4.1,4-7.32,7.77-9.52h.29a7.39,7.39,0,0,1,1.32-.66l.73-.14h.59l.51-.08.88.08a7.25,7.25,0,0,0,1.1.51,3.59,3.59,0,0,1,1.46,1.9c.15.3.07.59.15,1a.56.56,0,0,1,.14.36h.15a6.53,6.53,0,0,0,1.1-1.39c.51-.66,1.17-1.32,1.68-2a8.19,8.19,0,0,1,1.69-2.12,2.16,2.16,0,0,1,1-.37,1.41,1.41,0,0,1,1.32,1,1.5,1.5,0,0,1,.07.51,1.9,1.9,0,0,1-.43,1.1c-.08.15-.08.3-.15.37-.44.66-1,1.32-1.47,2a40.33,40.33,0,0,0-4,7.17,8.93,8.93,0,0,0-.88,3l.07.44h.15a3,3,0,0,0,.95-.52A11.63,11.63,0,0,0,354,95.87l2.2-2.05c.51-.73,1.24-1.32,1.83-2.12.07-.15.37-.29.44-.44,1.24-1.68,2.64-3.22,3.88-4.83.44-.66.95-1.25,1.39-1.84a3.28,3.28,0,0,1,.66-.73,1.92,1.92,0,0,1,.73-.14l.44.07a1.87,1.87,0,0,1,1.18,1.61,1.12,1.12,0,0,1-.08.51c-.29.66-.73,1.25-1,1.83-.66,1.25-1.39,2.35-2.05,3.67l-.74,1.24c-.07.15-.22.22-.22.44v.07h.15a10.72,10.72,0,0,1,1-.87,7.94,7.94,0,0,1,1.76-1.76l.07-.15a3.71,3.71,0,0,1,.81-.66,5.87,5.87,0,0,1,.66-.66,47.62,47.62,0,0,1,3.88-2.85,6.84,6.84,0,0,1,2.42-.66h.22a3.07,3.07,0,0,1,.66.36,1.39,1.39,0,0,1,.8.59,2.62,2.62,0,0,1,.37,1.54,7,7,0,0,1-.51,2.49c-.81,1.9-1.69,3.66-2.42,5.71a9.77,9.77,0,0,0-.73,2.71v.29h.22a1.89,1.89,0,0,0,.66-.29,22.15,22.15,0,0,0,2.19-1.24,40.38,40.38,0,0,0,7.62-6.89c.44-.44,1.17-1.68,2.12-1.68l.44.07a1.65,1.65,0,0,1,.88,1.46,1.17,1.17,0,0,1-.36.81l-1.32,1c-.52.44-2,2.35-2.57,2.78a9.08,9.08,0,0,1-.87.88c-1,.74-1.84,1.62-2.79,2.35-.14.07-.22.29-.36.36-1,.74-2,1.62-3,2.27a10.31,10.31,0,0,1-2,1.1l-.44.08a2.27,2.27,0,0,1-.74.14h-.22c-.14,0-.29-.14-.44-.14-.29-.15-.58-.08-.8-.22a3.62,3.62,0,0,1-1-1.61l.08-2c.8-2.49,1.68-4.76,2.56-7.11a12.51,12.51,0,0,0,.73-2.19,1.66,1.66,0,0,0,.22-.66l-.07-.15-.15-.07h-.07a4.52,4.52,0,0,0-.88.44,13.12,13.12,0,0,0-2,1.24c-.22.15-.37.44-.59.59a14.79,14.79,0,0,0-1.9,1.68l-1.17,1.25c-.44.58-1,1-1.39,1.54l-3.3,4.54-1,1.61-.36.36a1.7,1.7,0,0,1-1.39,1l-.37-.08c-.66-.22-1.54-.8-1.54-1.68l.08-.37c.07-.29.29-.58.36-.88.66-1.46,1.47-2.85,2.13-4.32a4.79,4.79,0,0,0,.87-2,23.32,23.32,0,0,0-2.05,2.42l-.29.22a16.94,16.94,0,0,1-1.54,1.83c-.14.15-.29.22-.36.37a18.94,18.94,0,0,1-3.08,2.85l-.37.3c-.14.14-.22.07-.36.14l-.37.3-.51.14a2.18,2.18,0,0,1-.88.22l-.73-.14a3,3,0,0,1-.81-.22,2.25,2.25,0,0,1-.73-.88l-.37-.51v-.3l-.07-1.1a8.75,8.75,0,0,1,.59-2.56c.14-.29.14-.59.29-.88a7,7,0,0,0,.59-1.46c-.08,0-.08,0-.08.07-.36.07-.51.44-.8.66L346,96.53a34.69,34.69,0,0,1-6.37,5.42,5.27,5.27,0,0,1-2.05.66h-.15a2.56,2.56,0,0,0-.81.08A7.51,7.51,0,0,1,335.09,102Zm3.29-2.63a7.9,7.9,0,0,0,2.2-1.18A36.65,36.65,0,0,0,348.42,91c-.3-1.47-.52-2.79-2.35-2.79-.14.15-.51.08-.73.15a8.32,8.32,0,0,0-1,.29l-.29.22-.37.08a14.75,14.75,0,0,0-5,4.76l-.8,1.61a7.54,7.54,0,0,0-.88,3.29,4.44,4.44,0,0,0,.07,1,.86.86,0,0,0,.37.07A2.12,2.12,0,0,0,338.38,99.32Z"/></g></g></svg>