<svg xmlns="http://www.w3.org/2000/svg" viewBox="0 0 416.84 161.11"><defs><style>.cls-1{fill:#fff;}</style></defs><g id="Layer_2" data-name="Layer 2"><g id="Layer_1-2" data-name="Layer 1"><path class="cls-1" d="M122.81,160.64a41,41,0,0,1-20.2-10.1A59,59,0,0,1,97,144.25a.63.63,0,0,0-.16-.34c0-.07-.19-.18-.28-.23-.32-.45-.58-.92-.91-1.37-.14-.27-.32-.75-.63-.76a4.44,4.44,0,0,0-1.62.45c-.61.29-1.5.34-2.18.65a8.27,8.27,0,0,1-1.27.36,10.82,10.82,0,0,1-1.34.39,2.58,2.58,0,0,1-1,.23c-.21.05-.7.23-.91.28-.61.29-1.44.26-2,.55a1.84,1.84,0,0,1-.66.07c-.13.11-.36.09-.57.14a4.75,4.75,0,0,1-1.72.39c-.67,0-1.39.47-2.07.47-.37,0-.84.27-1.28.3-2,.31-4,.69-5.92,1.06-1.51,0-3.1.56-4.61.53a6.53,6.53,0,0,1-1.16.19,11.44,11.44,0,0,1-1.55.13c-.36.08-.73.09-1.09.17-.53,0-1.24.14-1.78.11l-.42.1c-.61,0-1.25.14-1.85.12l-.36.09c-1.44-.05-3.1.26-4.54.21a1.59,1.59,0,0,1-.58.06c-.31,0-.68,0-1.05,0l-.5.11c-.69-.07-1.65,0-2.35-.06a2.52,2.52,0,0,1-.73.09c-.67,0-1.49,0-2.18,0l-.5.11c-1.53-.1-3.25-.08-4.76-.11-.76-.05-1.42,0-2.11,0-.23,0-.45,0-.68,0-1.38-.13-2.88-.09-4.33-.2-2.22-.17-4.44-.34-6.72-.49-.77,0-1.71-.21-2.49-.33-.46-.05-.83,0-1.22-.1a26.35,26.35,0,0,1-2.73-.42c-.46,0-.83,0-1.29-.08-1-.22-2-.36-3.12-.49-.87-.17-1.75-.42-2.62-.6a45.27,45.27,0,0,1-8.89-2.39,12.75,12.75,0,0,1-3.55-1.74,2.67,2.67,0,0,0-.53-.33,6.39,6.39,0,0,1-1.51-1.68,1.78,1.78,0,0,1-.21-.56,1.63,1.63,0,0,1-.25-.77L0,138c.1-2.2,1.71-3.69,3.47-4.85.65-.45,1.44-.93,2.16-1.4s1.49-.72,2.15-1.09c.14,0,.27-.14.41-.17.81-.41,1.79-.71,2.6-1.13s1.59-.59,2.33-1a3.78,3.78,0,0,0,.77-.25c1.49-.72,3.36-1.07,4.92-1.81.34-.15.71-.16,1.05-.32a3.42,3.42,0,0,0,.84-.26c.61-.29,1.42-.4,2-.69l.57-.13c.73-.4,1.77-.49,2.52-.81a7.34,7.34,0,0,1,1.19-.35c.69-.3,1.49-.41,2.17-.72l1.07-.25c1-.53,2.57-.59,3.65-1.13a18.63,18.63,0,0,0,1.91-.52c1.16-.49,2.44-.48,3.6-1a10,10,0,0,1,1.42-.4c1.05-.31,2.12-.56,3.12-.79a8,8,0,0,1,1.27-.36,1.42,1.42,0,0,0,.48-.19c.07,0,.23,0,.3,0s.49-.19.63-.22a10.19,10.19,0,0,1,1.41-.4c.47-.26,1.09-.18,1.48-.42s1.23-.21,1.65-.37l.71-.17a13,13,0,0,0,2.27-.59l.64-.15c.07,0,.34-.16.48-.19s.31,0,.45,0a2.23,2.23,0,0,1,.34-.16l.71-.16a7.09,7.09,0,0,1,1.27-.37l.36-.08a7,7,0,0,0,1.14-.26,10.54,10.54,0,0,1,2.13-.57l2.57-.59a7.28,7.28,0,0,0,1.21-.27l3.28-.76a1.06,1.06,0,0,1,.65-.15c.5-.11,1.05-.31,1.55-.43,1-.31,2.36-.54,3.48-.87l1.43-.33a2.37,2.37,0,0,1,.71-.16l.57-.13a9.82,9.82,0,0,0,2-.53c.21,0,.5-.12.58-.06a3.35,3.35,0,0,0,.49-.19c.48-.19,1.08-.17,1.5-.34l.85-.2,1.79-.41.93-.21c.39-.24,1-.09,1.18-.43a10.47,10.47,0,0,0-.06-1.56l.15-1.61c0-.23,0-.45,0-.68.07-.69.12-1.45.2-2.07a4.73,4.73,0,0,1,0-.91c.21-1.7.47-3.49.77-5.14.14-.71.15-1.31.29-2,.63-2.17,1.08-4.45,1.8-6.57a8.63,8.63,0,0,1,.3-1.27c.94-2.47,1.79-5,2.9-7.36.34-.83.81-1.69,1.22-2.53a1.05,1.05,0,0,0,.22-.35c.3-.67.68-1.29,1.05-2,.06-.09.18-.2.24-.28a14.6,14.6,0,0,1,1.37-2.2l.33-.52c.64-.83,1.18-1.78,1.83-2.53A56.56,56.56,0,0,1,103,64.27a38.45,38.45,0,0,1,7-5.3c1.2-.65,2.66-1.14,3.94-1.8.71-.17,1.5-.35,2.2-.58a1.41,1.41,0,0,1,.78-.18l.5-.12a8.54,8.54,0,0,1,1.23-.21c.45,0,.79-.18,1.16-.19,1.81,0,3.63-.23,5.15.17.55.1,1.06.06,1.54.18a22.76,22.76,0,0,1,3.69,1,27.56,27.56,0,0,1,10.07,6.85,41.44,41.44,0,0,1,3.42,4.41,10.7,10.7,0,0,1,.78,1.47c.61,1,1.19,2.21,1.73,3.28.28.54.43,1.18.68,1.65a5.57,5.57,0,0,0,.34,1.13c.18.48.36,1.27.48,1.76a6,6,0,0,1,.44,1.93.92.92,0,0,0,.17.41l.33,2.41c0,.75.25,1.44.2,2.21,0,.6.07,1.26.06,1.86-.06,1.07,0,2.12-.19,3.13a22.23,22.23,0,0,1-.45,3.26,3.83,3.83,0,0,0-.19,1.47l0,.07a3,3,0,0,0,.78-.18c.14,0,.41-.17.57-.13a3.65,3.65,0,0,0,1.23-.21,2.37,2.37,0,0,1,.34-.15,3.7,3.7,0,0,0,1.23-.21l1.36-.31c.64-.15,1.37-.24,1.94-.37a4.23,4.23,0,0,1,.91-.29,6.7,6.7,0,0,0,1.73-.32l3.36-.77,9.85-2.26c1.93-.44,3.94-.83,5.87-1.27l2.07-.48a2.79,2.79,0,0,0,.79-.18,3.08,3.08,0,0,1,.85-.19L182.1,87a3.47,3.47,0,0,0,.86-.19,4.2,4.2,0,0,0,.93-.22c.26-.81.3-1.64.54-2.53a41.33,41.33,0,0,0,.94-4.42c.06-.09.18-.19.15-.34.14-.7.29-1.34.43-2l.12-.48c.61-3.22,1.26-6.3,1.87-9.52.38-2,.82-3.94,1.14-5.82.06-.39,0-.61.08-1,.19-.8.44-1.68.56-2.46a7.87,7.87,0,0,1,.13-1.08c.11-.48.27-1.12.35-1.74,0-.16,0-.23.06-.39s.11-.17.09-.25c.5-3.42,1.09-6.71,1.78-10,.14-.7.08-1.29.23-1.93,0-.16.17-.26.13-.4.16-.94.21-1.71.37-2.65.08-.31.21-.72.29-1,0-.14,0-.3,0-.44s.17-.27.21-.43a6,6,0,0,1,.12-1.08c.07-.39.18-.86.24-1.25s.05-.77.17-1.24c.27-1.42.66-3,.86-4.41.22-1,.33-1.88.47-2.89.13-.4.3-1,.42-1.45a7.52,7.52,0,0,1,.15-1.31l.16-.26a1,1,0,0,0,0-.45c0-.16.16-.26.2-.42s0-.23,0-.37.2-.42.24-.58,0-.31,0-.45c.18-.87.43-1.75.61-2.62,0-.23.2-.42.24-.58a.44.44,0,0,1,0-.3,4.63,4.63,0,0,1,.1-.55c0-.16,0-.23.06-.39s.15-.33.19-.49,0-.23.06-.39a3,3,0,0,1,.17-.57l.07-.69c.28-.74.56-1.48.77-2.21.09-.24.1-.54.18-.86a10.92,10.92,0,0,1,.52-1.32c0-.15,0-.31,0-.45s.19-.19.17-.26a4.07,4.07,0,0,1,.26-.82c0-.15.22-.35.26-.51a12,12,0,0,1,1.77-3.11l1-1.58c.42-.47.78-.85,1.21-1.25.06-.09.1-.25.17-.26s.27-.14.41-.17a3.22,3.22,0,0,1,.24-.28l.35-.09a3,3,0,0,0,.44-.4c.28-.06.55-.2.84-.26s.5-.42.79-.49c.39-.24.78-.18,1.11-.4a4.84,4.84,0,0,1,1.1-.1c.3,0,.5-.12.73-.1a9.24,9.24,0,0,1,.9.32c.16,0,.23,0,.39.06a1.68,1.68,0,0,1,.65.23c.18.11.37.29.55.4s.51.26.77.42.24.4.43.58.35.22.47.42a4.57,4.57,0,0,1,.45.65c.12.19.3.3.42.5s.17.41.29.61.23.33.35.52.09.43.23.7a.79.79,0,0,1,.23.33,3.53,3.53,0,0,1,.25.76,1.22,1.22,0,0,0,.26.47,2.43,2.43,0,0,1,.07.66,4.63,4.63,0,0,1,.52,1.91c0,.37.21.63.22,1l.2.86c0,.74.29,1.58.31,2.33-.06.39.15.64.18,1.09-.08,1,.2,2.21.18,3.11l.12.5a.69.69,0,0,0-.06.39l.1.43c0,.9.07,1.94.06,2.91a4.3,4.3,0,0,0,.09,1c-.08,1.29,0,2.77,0,4.06l.1.43c0,.3-.07.69-.08,1l.1.42c-.1,1.53,0,3.09-.16,4.55l.09.36c-.07.39-.05.76-.13,1.08l.1.43c-.2,1.77-.22,3.65-.27,5.39-.11,1.15,0,2-1,2.56a1.22,1.22,0,0,1-.7.23,1.93,1.93,0,0,1-2-1.79c.07-.69.51-1.4.65-2.11s.07-1.66.17-2.51c.37-2.64.07-5.58.25-8.4.05-.46-.11-.81-.06-1.27,0-.74-.08-1.63-.1-2.38l-.08-.36c.06-1.06-.21-2.2-.17-3.34l-.11-.5c0-.83-.27-1.82-.23-2.65,0-.14-.15-.95-.15-.95s-.12-.19-.15-.34-.09-.73-.09-1l-.16-.71A4.49,4.49,0,0,0,214.2,14a1.25,1.25,0,0,1,0-.51,18.67,18.67,0,0,1-.55-2.06c-.14-.27-.17-.71-.3-1l-.15-.64a8.48,8.48,0,0,0-.58-1.22l-.11-.5a18.78,18.78,0,0,0-1.12-1.93c-.56-.77-1.07-1.7-2-1.71-2.2-.09-3.15,2-3.83,3.29a8.7,8.7,0,0,0-.81,1.39c-.29.67-.59,1.34-.87,2.08a7,7,0,0,0-.54.95c-.22.65-.45,1.3-.66,2a2.71,2.71,0,0,0-.4.84c-.06.09,0,.3-.06.39a29.4,29.4,0,0,0-1.81,5.9,2.05,2.05,0,0,1-.26.51c0,.16,0,.37,0,.53-.14.41-.25.89-.4,1.22l-.07.69a9.31,9.31,0,0,0-.52,2.3c-.13.41-.3,1-.44,1.38-.16.94-.33,1.81-.56,2.76a.64.64,0,0,1-.14.41c-2.51,12.3-4.92,24.72-7.25,37.13-.76,4.23-1.84,8.39-2.61,12.55a18.49,18.49,0,0,0-.48,1.84c-.11.47-.13,1.08-.24,1.56a2.9,2.9,0,0,0-.37,1.66l.07,0c.16,0,.43-.1.64-.15a10.45,10.45,0,0,1,1.43-.32c.16,0,.55-.21.86-.2a2.44,2.44,0,0,0,.71-.16,10,10,0,0,1,1.52-.28,3.88,3.88,0,0,1,.92-.21c.36-.08.7-.23,1-.3a2.72,2.72,0,0,0,.71-.16L196,83.8c.15,0,.23,0,.3,0a5.62,5.62,0,0,1,1.49-.42l.93-.21.71-.16.71-.17.72-.16a2.16,2.16,0,0,1,.71-.16l1-.23a9.9,9.9,0,0,0,2-.53c.15,0,.3,0,.45,0a16.2,16.2,0,0,0,1.77-.48l4.48-1.11a12.81,12.81,0,0,0,2.32-.68l1.14-.26a10.68,10.68,0,0,1,1.56-.43l.57-.13a4.34,4.34,0,0,1,1-.23c.37,0,1.42.65,1.14,1.39-.05.76-.76.92-1.76,1.15l-.79.18a2.08,2.08,0,0,0-.92.22.93.93,0,0,1-.24,0l-.85.2c-.14,0-.27.14-.41.17a9.08,9.08,0,0,0-2,.46l-7.17,1.49-3.36.77a11.43,11.43,0,0,0-1.5.35c-.27.14-.67,0-.94.14a3.88,3.88,0,0,1-1.29.3l-.71.16a12.62,12.62,0,0,0-1.64.38,3.32,3.32,0,0,0-.86.19c-.64.15-1.23.21-1.8.34l-4.07.94a11.43,11.43,0,0,0-2.2.57c-.42,1.45-.63,3.16-1.12,4.62a9.59,9.59,0,0,0-.29,1.35c-.41,1.14-.59,2.31-1,3.39,0,.16,0,.37,0,.53-.74,2.35-1.3,4.81-2.13,7.1a4.18,4.18,0,0,1-.21,1c-1.06,3.25-2.14,6.42-3.21,9.6-.19.49-.43,1.08-.69,1.59-.93,2.46-1.89,4.86-2.91,7.28-.82,2-1.9,3.82-2.74,5.74a11.81,11.81,0,0,0-.68,1.28c-.11.18-.24.28-.35.46-.35.75-.75,1.3-1,2l-.33.53a7.42,7.42,0,0,1-1,1.58c-.35.46-.53.95-.88,1.41-.07,0-.06.08,0,.16-.18.19-.27.43-.46.63s-.09.24-.14.33c-.66.75-1.12,1.68-1.85,2.45a1.17,1.17,0,0,1-.2.42c-.6.67-1.13,1.32-1.65,2a.59.59,0,0,1-.22.35c-.35.46-.79.86-1.2,1.33-.06.09-.15.34-.21.42-1,1.07-2,2.2-3.15,3.28-.06.09-.2.12-.33.23a6.72,6.72,0,0,0-.72.77c-.13.1-.27.13-.4.24a45.88,45.88,0,0,1-5,4.07c-.19.13-.35.09-.55.21-.83.64-1.82,1.24-2.74,1.83-.39.24-.77.25-1.09.47s-.65.45-1,.61l-.43.1c-.73.39-1.63.75-2.37,1.14a2.09,2.09,0,0,0-.62.22c-.61.29-1.54.5-2.22.81l-.64.15a3.19,3.19,0,0,1-.84.26c-.47.26-1,.16-1.5.35a6.93,6.93,0,0,1-2.09.4c-.14,0-.34.16-.48.19-.53,0-1.23.21-1.76.18l-.43.1c-.75,0-1.46.18-2.21.2s-1.49,0-2.26,0A52.26,52.26,0,0,1,122.81,160.64ZM93,137.73c-.62-1.06-1.06-2.32-1.68-3.38-.27-.53-.35-1.19-.62-1.73-.41-.81-.64-1.81-1.05-2.62-.15-.34-.2-.85-.35-1.19s-.2-.86-.37-1.27l-.14-.64a6.39,6.39,0,0,1-.34-1.13l-.1-.43a18,18,0,0,1-.62-2.71,9.89,9.89,0,0,0-.26-1.45,5.53,5.53,0,0,1-.17-1.08c-.07-1-.4-2.09-.39-3l-.09-.43c0-1.51-.41-3.07-.36-4.51a7.33,7.33,0,0,0-.12-2.15l-.36.08a2,2,0,0,0-.66.08,8.32,8.32,0,0,1-1.28.3c-.18.19-.84.26-1.13.33a7.79,7.79,0,0,0-1.76.48c-.29.07-.66.08-1,.16a6.36,6.36,0,0,1-1.13.33l-2.28.53c-1.43.32-3,.76-4.41,1.08a16.66,16.66,0,0,0-1.86.43c-.34.15-.78.18-1.05.32l-1,.23c-.34.15-1,.23-1.34.38a1.67,1.67,0,0,0-.59.06,10.25,10.25,0,0,1-1.54.5,1.59,1.59,0,0,0-.58.06,10.68,10.68,0,0,1-1.56.43c-.07,0-.3,0-.43.1a20.3,20.3,0,0,0-2.07.48c-.26.13-.73.09-1,.23s-.65.14-.92.28c-.61.29-1.35.31-1.89.59a4.83,4.83,0,0,1-.93.21l-.64.15a20.34,20.34,0,0,0-2.13.56l-.5.11c-.27.14-.73.1-1.07.25-.12.1-.5.12-.77.25-.8.41-1.85.43-2.8.87-.27.14-1,.14-1.36.31-.78.18-1.48.42-2.27.6-.88.43-2.14.49-3.09.93-.12.11-.43.1-.64.15a11.66,11.66,0,0,1-1.63.45c-.93.51-2.28.52-3.29,1.06l-.92.21c-.81.41-1.84.5-2.72.92l-.57.13c-.83.34-1.84.5-2.67.84a3.11,3.11,0,0,1-.77.25c-.68.31-1.55.43-2.16.72-.36.09-.63.22-.91.29-1.69.84-3.86,1.19-5.62,2-.21.05-.48.19-.77.25-.68.31-1.54.51-2.2.88-.27.14-.5.12-.77.26-.54.27-1.31.52-1.85.79-.34.16-.64.15-1,.31-2,1.06-4.28,2-6.12,3.13-.25.21-.54.27-.79.48a11.26,11.26,0,0,0-1.95,1.65,2.14,2.14,0,0,0-.81,1.39c-.08.62.46,1,.67,1.27a11.22,11.22,0,0,0,3.22,1.9,60.38,60.38,0,0,0,12.19,3.36c.94.16,1.79.26,2.73.42,2.26.39,4.73.65,7.14,1,.14,0,.37,0,.51,0,1.33.22,2.77.27,4.08.42a1.08,1.08,0,0,0,.52-.05c1.15.12,2.45.19,3.6.31a16.39,16.39,0,0,0,1.72,0c1.85.17,3.8.18,5.7.27.61,0,1.18-.12,1.78-.11,2.59.15,5.3-.17,7.94-.1a5.58,5.58,0,0,1,1.11-.1c2,.06,4.27-.38,6.3-.39.37,0,.64-.15,1-.16,1,0,2.26-.3,3.24-.29a2.71,2.71,0,0,1,.8-.11c.68,0,1.45-.26,2.12-.26l1-.23c1,0,2.09-.41,3.14-.42a10.61,10.61,0,0,0,1.37-.24,10.86,10.86,0,0,0,1.51-.28l.36-.08a3.2,3.2,0,0,1,.87-.12l.72-.17c.21-.05.66-.07.94-.14a.47.47,0,0,1,.27-.14,11.13,11.13,0,0,0,2.23-.43,7.5,7.5,0,0,1,1.21-.28l1.08-.25a16.81,16.81,0,0,0,1.91-.51,11.28,11.28,0,0,0,1.48-.42l1.64-.37a11.66,11.66,0,0,1,1.63-.45c1-.53,2.25-.67,3.34-1.14C93.94,139.31,93.15,138.14,93,137.73Zm3.66.88a5.45,5.45,0,0,0,1.18-.42,2.06,2.06,0,0,1,.63-.22c.27-.13.69-.23,1-.37.74-.39,1.6-.59,2.26-1l.5-.11a12.49,12.49,0,0,1,1.51-.65c.14,0,.27-.14.41-.17.66-.38,1.5-.64,2.17-1,.21-.05.34-.16.55-.2,1.26-.74,2.69-1.37,3.9-2l.35-.08c1.39-.84,2.88-1.56,4.26-2.4s2.63-1.66,3.87-2.47a43.93,43.93,0,0,0,3.62-2.56c.38-.31.81-.41,1.19-.72,1.19-1,2.54-2,3.64-3.09a5.13,5.13,0,0,1,.64-.52c.7-.54,1.35-1.29,2-1.9.06-.09.2-.12.31-.3.31-.29.67-.68,1-1,0-.09.27-.14.3-.3,1.58-1.64,3.07-3.33,4.55-5.1.47-.56.84-1.24,1.38-1.82.11-.18.15-.34.26-.51l.71-.84a3,3,0,0,1,.31-.6,6.51,6.51,0,0,0,.77-1.23c.21-.42.51-.72.66-1.05a9.17,9.17,0,0,1,.81-1.39c.11-.17.15-.33.26-.51.59-1.34,1.29-2.55,1.78-4,.06-.09.18-.2.24-.28.22-.66.45-1.31.66-2a2.23,2.23,0,0,0,.25-.89c-.09,0-.09,0-.23,0a6.64,6.64,0,0,0-1.22.28c-.94.14-1.94.37-2.94.6l-10.49,2.41c-2,.46-3.86.88-5.8,1.25l-1.29.3c-.14,0-.58.06-.73.09a5.1,5.1,0,0,1-1.42.33c-.43.1-.84.27-1.34.38a11,11,0,0,0-1.59.29l-1.21.28a6.53,6.53,0,0,1-1.16.19c-.43.1-.91.28-1.41.4a5.41,5.41,0,0,0-1.59.29l-2.21.51a7.73,7.73,0,0,1-1.22.27L104,105.82l-10.35,2.37c-.18.19-.86.2-1.14.26-.86.2-1.56.44-2.41.63-.29.07-1,.07-1.15.27l-.11.17a5,5,0,0,0,.06,1.57c0,1.06.15,2.29.1,3.36a10.84,10.84,0,0,1,.2,1.53c0,1.19.5,2.51.49,3.79l.22.93c0,.37.25.77.26,1.14a7.92,7.92,0,0,0,.59,2.57,14.22,14.22,0,0,0,.46,1.7l.25,1.07c.69,1.34.9,2.95,1.57,4.22.15.34.15.64.29.91.63,1.14,1,2.4,1.62,3.46s1.1,1.86,1.54,2.81C96.55,138.56,96.62,138.54,96.64,138.61Zm-7.87-31c.35.22.69.07,1.19,0l2.57-.59,6.85-1.57,3.28-.75,4.57-1.05c2.57-.59,5.23-1.13,7.87-1.73a11.23,11.23,0,0,1,2.66-.54A7.12,7.12,0,0,1,119,101c.67,0,1.34-.38,2-.38a21,21,0,0,1,2.14-.5c.38,0,.77-.25,1.22-.27.65-.08,1.51-.28,2.15-.43l2.29-.52,3.07-.7,6.07-1.4,4.92-1.13a7.64,7.64,0,0,0,2.21-.51A30.66,30.66,0,0,0,146.12,90c.14-1,.06-2,.11-3.1,0-.54-.08-1,0-1.57,0-.76-.15-1.62-.1-2.38l-.12-.5c0-.61-.31-1.36-.31-2l-.08-.36a5,5,0,0,0-.33-1.43l-.21-.93c-.38-.66-.44-1.55-.73-2.16s-.4-1.11-.66-1.58c-.53-1-1-2.09-1.61-3.08a29.84,29.84,0,0,0-6-7.19c-.57-.54-1.19-.93-1.75-1.4-.1-.13-.32-.08-.42-.21a17.68,17.68,0,0,0-4.11-2.21c-3.92-1.65-7.87-2.17-13.51-.88-.18.19-.85.2-1.2.35-.87.43-1.86.73-2.66,1.14a1,1,0,0,1-.42.17c-.53.27-1.06.62-1.52.87-.15,0-.27.14-.42.17-1,.69-2.08,1.39-3,2.13-.32.23-.56.51-.81.71a10.7,10.7,0,0,1-1.14.94c-.13.11-.24.28-.36.38-.62.6-1.18,1.1-1.78,1.77a24.75,24.75,0,0,0-1.83,2.15c-.19.19-.33.52-.52.71-.47.56-.78,1.16-1.25,1.72-.13.1-.17.26-.28.44a6.29,6.29,0,0,0-1,1.42c-.26.51-.75,1-1,1.51-.39.91-.88,1.7-1.27,2.62a1.92,1.92,0,0,1-.35.46c-1,2.41-2.06,4.75-3,7.14-.18.49-.23,1-.36,1.36a56.28,56.28,0,0,0-2,7.51c-.1.55-.25,1.18-.35,1.73a7.07,7.07,0,0,0-.18,1.17c-.11.85-.27,1.79-.37,2.64s-.07,1.67-.23,2.61c-.06.39-.07,1-.14,1.38a.7.7,0,0,0,0,.38c-.05.46,0,1,0,1.51A7.52,7.52,0,0,0,88.77,107.58Zm32.33,49.54c1,.22,2.14.49,3.23.61a26.88,26.88,0,0,0,2.76.27,5.25,5.25,0,0,0,1,0c.6,0,1.22.09,1.83.1.37,0,.64-.15,1-.16.77,0,1.62-.14,2.39-.09l.5-.12a4.06,4.06,0,0,1,1-.07,1.05,1.05,0,0,1,.41-.17,5,5,0,0,0,1.8-.34c.55-.2,1-.08,1.5-.34a9.24,9.24,0,0,0,1.34-.38c.68-.31,1.48-.42,2.15-.8l.5-.11c1.27-.67,2.68-1.07,3.87-1.79.86-.5,1.87-1,2.64-1.58.2-.13.34-.16.54-.28.65-.45,1.35-1,2-1.43a58.13,58.13,0,0,0,9.57-9c.06-.09.1-.25.15-.34l1.53-1.85c.13-.1.16-.26.27-.44s.41-.54.64-.82l.22-.35c.48-.56.77-1.23,1.25-1.79a3.52,3.52,0,0,0,.38-.61,25.82,25.82,0,0,0,2.07-3.41,62,62,0,0,0,3.56-6.75,16.33,16.33,0,0,1,.8-1.46c1-2.49,2.08-5,3.09-7.48a9.6,9.6,0,0,0,.53-1.62c.41-1.15,1-2.4,1.44-3.56a7.37,7.37,0,0,1,.4-1.52c.79-2.14,1.4-4.38,2.18-6.52a5.48,5.48,0,0,1,.22-1,28.15,28.15,0,0,0,.85-2.83c.33-1.2.64-2.47,1-3.69a7.87,7.87,0,0,0,.2-1.1,16.11,16.11,0,0,0,.48-1.84c0-.16.17-.26.15-.33a15.24,15.24,0,0,1,.37-1.67,4.73,4.73,0,0,0,.39-1.89,8,8,0,0,0-2.67.46l-1.5.35a4.06,4.06,0,0,1-.93.21,12.54,12.54,0,0,0-1.51.27l-1.86.43a1.65,1.65,0,0,1-.57.13c-.44,0-.9.36-1.43.33a10.32,10.32,0,0,1-1.37.24,8.33,8.33,0,0,0-1.43.33c-.64.14-1.3.22-2,.38l-2.22.51a18.75,18.75,0,0,0-2,.46l-4.07.93c-1.79.41-3.8.8-5.59,1.21l-2.07.48a10.61,10.61,0,0,1-1.37.24,5.6,5.6,0,0,0-1.06.31,19.8,19.8,0,0,0-2,.39l-.14,0c-.27.82-.44,1.68-.78,2.51a26.9,26.9,0,0,1-1.2,3c-.65,1.73-1.71,3.33-2.45,5-.22.35-.52.72-.74,1.07-.38.61-.69,1.21-1.1,1.75-.36.39-.53,1-.89,1.34s-.66,1-1.08,1.52c-.6.67-1.13,1.31-1.66,2-.11.18-.14.33-.25.51a6.06,6.06,0,0,0-1,1c-.13.1-.17.26-.35.45-1.31,1.5-2.79,2.9-4.19,4.34-.56.51-1.19,1-1.75,1.53-.11.18-.32.23-.45.33a48.93,48.93,0,0,1-4.57,3.68c-.12.11-.3.3-.43.4-.9.66-1.8,1.32-2.72,1.9-.58.44-1.17.8-1.75,1.23-.19.12-.35.08-.55.2a10,10,0,0,1-1.82,1.25c-.14,0-.27.13-.41.17-.58.43-1.39.84-2,1.27l-.5.12c-1.7,1.14-3.68,2-5.55,3a.65.65,0,0,0-.34.15c-.68.31-1.44.63-2.1,1a8.59,8.59,0,0,0-1.11.41c-.59.36-1.36.61-2,.9-.34.15-.7.24-1,.39-.88.43-2,.76-2.88,1.19a18.75,18.75,0,0,0-2.08.77c-.05.09,0,.16,0,.31.26.16.43.57.65.9a3.4,3.4,0,0,1,.63.76,12.14,12.14,0,0,1,1,1.35,51.28,51.28,0,0,0,4.17,4.38c1,.9,2,1.64,3.06,2.53.28.23.7.44,1,.67a19,19,0,0,0,3.25,2l.43.27c.83.34,1.55.85,2.38,1.19,1.83.78,3.78,1.38,5.72,2A5,5,0,0,0,121.1,157.12Z"/><path class="cls-1" d="M218.7,92.56a2.31,2.31,0,0,1-2-1l-.42-1.19a7.09,7.09,0,0,1-.07-1.93l-.09-1c.18-1.16.15-2.28.33-3.45s.32-2.56.56-3.81l.49-2.45,0-.21a25.82,25.82,0,0,1,.73-2.72,3.11,3.11,0,0,1,.5-1.4c.17-.26.46-.32.64-.52l.21,0a1.3,1.3,0,0,1,1.5.64,1.51,1.51,0,0,1,.26.46l0,.15a5.46,5.46,0,0,1-.24,1.56,1.37,1.37,0,0,0-.1.55,16.81,16.81,0,0,0-.7,2.18c-.14.41-.13.78-.26,1.19a16.13,16.13,0,0,0-.65,2.4c0,.31-.22.66-.23,1l-.58,3.36a25.6,25.6,0,0,0-.07,2.65l0,.52c0,.14.07.28.16.34l.16,0a12.67,12.67,0,0,1,1.06-.92c.67-.68,1.18-1.39,1.78-2.06l.17-.26a15.41,15.41,0,0,1,1.27-1.65l.32-.6,1.28-1.94c.71-1.14,1.37-2.2,1.95-3.3.27-.44.56-.81.77-1.23s.26-.82.51-1a1,1,0,0,1,.53-.35,1.48,1.48,0,0,1,1.2.33.87.87,0,0,1,.27.53V78c0,.16-.17.26-.28.44A19.63,19.63,0,0,1,228.08,81l-.91,1.64a6.08,6.08,0,0,1-.62.89,10.81,10.81,0,0,1-1.37,2.2,14.29,14.29,0,0,0-.84,1.24c-.29.37-.43.78-.66,1.06l-2.22,2.76a8.37,8.37,0,0,1-1.32,1.13,2.89,2.89,0,0,1-1.06.62Zm.4-22.18-.28-.54,0-.45a3.5,3.5,0,0,1,.67-1.66c.18-.19.55-.2.73-.39a2.13,2.13,0,0,1,2.42.72,2.26,2.26,0,0,1,.29.61,2.11,2.11,0,0,1-.91,2.24l-.48.19A2.59,2.59,0,0,1,219.1,70.38Z"/><path class="cls-1" d="M253.1,73.47c-.15.33-.62.59-.86.87l-11,12.6a6,6,0,0,0-.23,1.25c-.16.64-.3,1.35-.43,2.06l-.22.35c-.06.39,0,.67-.08,1a18.1,18.1,0,0,0-.49,1.77c-.44,2.65-1.06,5.2-1.51,7.86a1.65,1.65,0,0,0-.2.42c-.08.32,0,.6-.07,1,0,.16-.17.27-.2.43a6.71,6.71,0,0,1-.12,1.15c0,.07-.11.17-.09.24s0,.31,0,.47l-.17.26a.72.72,0,0,1,0,.37c0,.07-.09.25-.15.34a.81.81,0,0,1,0,.44,1,1,0,0,0-.15.34l0,.21c0,.16-.15.34-.19.49a.77.77,0,0,1,0,.38c0,.07-.11.17-.14.33a.81.81,0,0,1,0,.38c0,.07-.11.17-.1.24a.7.7,0,0,0,0,.38,1.83,1.83,0,0,1-.2.42c0,.23.08.36,0,.53s0,.09-.11.18l.08.35-.16.27c0,.16.06.28,0,.44s-.16.26-.14.34,0,.3,0,.46-.09.24-.15.33l.1.43-.22.35.07.29-.17.26c0,.16.07.29,0,.45s-.17.26-.2.42l.06.28a2,2,0,0,1-.13.41,3.89,3.89,0,0,1,0,.53c0,.07-.09.25-.15.34s.07.28,0,.44-.11.18-.18.19l.1.43a1.49,1.49,0,0,0-.21.42l.07.29c0,.16-.17.26-.21.42a.5.5,0,0,1,0,.38c0,.14-.07.31-.11.47l.06.29c0,.16-.16.26-.2.42a.66.66,0,0,1,0,.37c0,.08-.09.25-.15.34l.07.28a1.57,1.57,0,0,1-.21.43l.09.35-.17.27c0,.16,0,.37,0,.53s-.11.17-.09.25a3.89,3.89,0,0,1,0,.53c0,.07-.09.25-.15.33a1.35,1.35,0,0,1,0,.52l-.17.26a1,1,0,0,1,0,.45l-.12.47a.47.47,0,0,1,0,.31c0,.07-.11.17-.15.33l.08.36c0,.16-.16.26-.2.42a1,1,0,0,1,0,.45c0,.15-.16.26-.13.4l.05.22c0,.16-.16.26-.2.42l.1.43-.22.35a.93.93,0,0,1,0,.44c0,.07-.09.25-.15.34a.81.81,0,0,1,0,.44c0,.07-.11.18-.15.34l.08.35c0,.16-.16.27-.13.41s0,.3,0,.46-.1.25-.15.34a1.07,1.07,0,0,1,0,.44.87.87,0,0,1-.15.33c0,.24.08.36.06.59-.07,0-.13.11-.18.19l.08.36c0,.16-.17.26-.15.34a.81.81,0,0,0,0,.44c0,.16-.17.26-.21.42l.08.36c0,.16-.16.26-.14.33a1,1,0,0,0,0,.45c0,.16-.16.26-.2.42s.08.36,0,.52l-.16.26.1.43a1.49,1.49,0,0,0-.21.42l.08.36c0,.16-.16.26-.2.42a1,1,0,0,1,0,.45c0,.07-.11.17-.15.33l.1.43c0,.16-.17.26-.21.42a.85.85,0,0,1,0,.45c0,.07-.11.17-.15.33a1,1,0,0,1,0,.45c0,.07-.11.17-.17.26l.09.36c0,.16-.15.33-.12.47a.85.85,0,0,0,0,.45,1.49,1.49,0,0,1-.21.42.85.85,0,0,1,0,.45c0,.14-.09.24-.15.33l.1.43c0,.16-.17.26-.15.33a.85.85,0,0,0,0,.45c0,.16-.15.33-.19.49a1,1,0,0,1,0,.45c0,.07-.11.17-.15.33l.1.43c-.06.09-.17.26-.15.33s0,.38,0,.54-.09.24-.15.33l.08.36c0,.16-.14.33-.18.49a1.07,1.07,0,0,1,0,.52c0,.07-.11.17-.09.25,0,.23,0,.37,0,.6,0,.07-.11.17-.09.25s0,.37,0,.53-.09.25-.13.4a1,1,0,0,1,0,.45l-.12.48a.92.92,0,0,1,0,.44c0,.07-.11.18-.09.25a.58.58,0,0,0,0,.37,1.5,1.5,0,0,1-.14.41,1.27,1.27,0,0,0,0,.51,3.33,3.33,0,0,0-.14.41c-.11.48,0,1-.13,1.38,0,.15-.09.25-.13.41-.06.39.11.8-.29,1-.16.27-.62.22-.93.21-.1-.12-.26-.16-.36-.29a2.46,2.46,0,0,1-.17-.71c0-.14-.22-.32-.24-.4a.68.68,0,0,1,0-.6l-.13-.57c0-.23.13-.41.16-.64l-.12-.5c.07-1,0-2.25.07-3.32a5.7,5.7,0,0,1-.11-1.1c0-.14.08-.32,0-.46s-.06-.59,0-.75c0-1.65-.33-3.38-.33-5l-.07-.29c0-.52-.1-1.1-.13-1.55l-.06-.28c0-.75-.2-1.54-.21-2.21,0-.91-.34-1.8-.39-2.69-.07-.29-.08-.66-.14-.95,0-.67-.35-1.49-.32-2l-.1-.43a13.26,13.26,0,0,0-.47-2.37l-.08-.35a8.26,8.26,0,0,0-.31-1.36l-.33-1.43c-.12-.2-.11-.5-.23-.7-.43-.87-.53-2-.87-2.8a4.39,4.39,0,0,1-.3-1c-.57-1.14-.92-2.34-1.52-3.33l-.1-.43a19,19,0,0,0-3.34-4.42A6.22,6.22,0,0,0,217,115a5.42,5.42,0,0,0-.79-.5,6,6,0,0,0-3.84-.69c-1.19,0-2.44,1.16-3.42.78a1.69,1.69,0,0,1-.74-2.53,6,6,0,0,1,1.34-1.06l.5-.12a6.52,6.52,0,0,0,1.09-.47,41.47,41.47,0,0,0,4.65-3.32c.7-.54,1.41-1.08,2.16-1.7a3.94,3.94,0,0,1,.51-.42,52.25,52.25,0,0,0,4.28-3.61c.13-.11.27-.14.32-.23.51-.42,1.07-.92,1.56-1.41.13-.1.27-.13.4-.24l1.05-1c0-.09.19-.12.32-.23s.43-.4.62-.59.45-.33.68-.61c1.79-1.69,3.76-3.26,5.45-5.08a10.7,10.7,0,0,0,1.14-.94c1-1,2-2,3-2.94.13-.11.27-.14.4-.24a10.89,10.89,0,0,1,1-1.05c.13-.1.32-.22.36-.38a5.76,5.76,0,0,0,.34-1.81c.18-.87.32-1.88.48-2.81.17-.57.25-1.19.41-1.83,0-.3.1-.55.09-.92l-.07,0,0-.07c0,.07,0,0-.06.08s-.25.51-.44.71a11.21,11.21,0,0,0-.66,1,1.87,1.87,0,0,1-.45.63,2.05,2.05,0,0,1-.26.51c-.18.19-.26.51-.5.79,0,.09-.19.12-.3.3a.73.73,0,0,1-.21.42c-.52.65-1,1.42-1.48,2.07a1.47,1.47,0,0,1-.36.38,1.32,1.32,0,0,0-.2.42,1.22,1.22,0,0,0-.44.4l-.16.27a4.5,4.5,0,0,0-.49.48,1,1,0,0,0-.22.36,4.33,4.33,0,0,0-.51.41c-.12.11-.16.27-.29.37a1.86,1.86,0,0,1-.52.34l-.22.36a2.46,2.46,0,0,1-.59.36c-.13.1-.18.19-.31.29a3.43,3.43,0,0,1-.88.43,2.08,2.08,0,0,1-1.16.49c-.23,0-.54,0-.77,0l-.35.09c-.23,0-.48-.12-.71-.14a3.11,3.11,0,0,1-1.1-.88c-.12-.19-.37-.29-.56-.47s-.26-.47-.38-.66l-.13-.58a5.91,5.91,0,0,1-.29-2.56c0-.14,0-.37,0-.52a6.61,6.61,0,0,1,.12-.77,1,1,0,0,0,0-.45c0-.16.2-.42.24-.58s-.08-.36,0-.53.15-.34.17-.57l-.05-.21c.08-.32.24-.58.32-.9,0-.16,0-.31.06-.39s.17-.27.21-.43,0-.15,0-.3.26-.51.35-.75.07-.39.18-.57.16-.26.27-.44l.12-.48c.11-.17.23-.28.34-.45s0-.23.06-.39.24-.28.35-.46a6.44,6.44,0,0,1,1-1.66,3.68,3.68,0,0,0,.32-.6c.12-.11.32-.23.45-.33s.09-.25.15-.34.32-.22.5-.41.22-.35.42-.47a.71.71,0,0,1,.34-.16c.13-.1.24-.28.36-.38A1.28,1.28,0,0,1,232,72c0-.08.25-.21.31-.29a4.78,4.78,0,0,1,1.69-.47,2.06,2.06,0,0,0,.66-.07,4,4,0,0,1,2.84,1.9c.16.34.25.77.41,1.11s.11.8.2,1.23c.08,0,.08,0,.24,0A9.94,9.94,0,0,1,239,74.3a4.18,4.18,0,0,1,.7-1.22c.11-.17.13-.4.24-.58s.27-.14.31-.29a.75.75,0,0,1,.2-.43,4,4,0,0,0,.29-.36c.06-.09.08-.32.21-.43s.27-.13.3-.29.22-.35.42-.47a1.71,1.71,0,0,1,2.73.42c.76,1.33.13,2.53-.09,3.55a26.17,26.17,0,0,1-1.11,4.32c-.13.4-.12.78-.25,1.18-.1.25-.18.57-.27.81s-.08.62-.16.94a1.42,1.42,0,0,0-.16.94c.48-.18.62-.59.92-.89l7.17-8.4c.38-.32.56-.81,1-1a1.26,1.26,0,0,1,1.51,0A1.21,1.21,0,0,1,253.1,73.47ZM238.5,89.74l-.09,0-.14,0c-.13.11-.33.23-.45.33-.3.37-.6.66-.89,1-.15,0-.27.14-.35.15A58.36,58.36,0,0,1,232,95.59a8.56,8.56,0,0,0-.6.66,4.82,4.82,0,0,0-.75.63c-.44.4-.93.88-1.42,1.37-.05.09-.19.12-.32.23-.44.4-.85.87-1.29,1.27s-.57.43-.81.71c-1.59,1.57-3.35,3.1-5.1,4.63-1.5,1.32-3.09,2.59-4.56,4-.3.3-1.51,1-1.48,1.39.6.32,1.32.53,1.92.84a13.75,13.75,0,0,1,4.49,4.16c.1.12.13.27.24.39a8.62,8.62,0,0,1,.69,1c.63,1.13,1.06,2.31,1.69,3.44.31.68.49,1.47.79,2.15l.14.57c.3.68.44,1.62.73,2.23.16.34.13.88.28,1.22s.16,1,.33,1.42a8.75,8.75,0,0,1,.3,1.29,7.67,7.67,0,0,1,.33,1.8l.3,1.29c-.06,1.06.43,2.22.36,3.22l.12.5c0,1.65.47,3.35.45,4.93.05.51.07,1,.12,1.48-.05.76.14,1.61.13,2.52a2.09,2.09,0,0,0,0,1.12c0,.07,0,.07.16,0l0-.07c0-.15,0-.3,0-.45s.18-.19.17-.26,0-.37,0-.53.09-.25.14-.34,0-.37,0-.51a1.52,1.52,0,0,0,.13-.41l-.06-.29c0-.15.16-.26.2-.42a1.07,1.07,0,0,1,0-.44c0-.07.11-.18.11-.18a.93.93,0,0,0,0-.44c0-.16.16-.27.2-.43l-.06-.28c0-.23.14-.34.11-.48a.81.81,0,0,0,0-.44c.06-.09.19-.19.15-.34a.72.72,0,0,0,0-.37c0-.16.15-.34.19-.49l-.08-.36c0-.16.15-.34.18-.5l-.06-.28a1.65,1.65,0,0,1,.2-.42,1,1,0,0,1,0-.45c0-.14.09-.25.13-.4l-.08-.36c.05-.09.18-.19.14-.34s0-.23,0-.37.17-.26.21-.42a1,1,0,0,1,0-.45c0-.07.11-.17.15-.33l-.08-.36c0-.16.16-.26.15-.33,0-.23,0-.38,0-.61,0,0,.12-.1.11-.17a3.79,3.79,0,0,1,0-.53c0-.08.09-.25.14-.34l-.09-.43c.05-.09.12-.1.11-.17s0-.38,0-.54.15-.33.19-.49a.66.66,0,0,1,0-.37c0-.15.09-.25.15-.34l-.1-.43c.06-.08.18-.19.17-.26a1.07,1.07,0,0,0,0-.44l.16-.27c0-.16-.06-.28,0-.44a1.65,1.65,0,0,1,.2-.42,1.07,1.07,0,0,1,0-.52c0-.07.11-.18.09-.25a.81.81,0,0,0,0-.44c0-.16.17-.27.21-.42s-.07-.29,0-.45.09-.25.15-.33l-.08-.36.11-.18c.09-.24,0-.37,0-.6s.18-.19.16-.26a1,1,0,0,0,0-.45c0-.16.16-.26.2-.42l-.1-.43c.06-.09.18-.19.15-.33s0-.23,0-.38.18-.19.15-.33,0-.3,0-.46.11-.18.1-.25a1.35,1.35,0,0,0,0-.52c.06-.08.17-.26.15-.33a3.89,3.89,0,0,1,0-.53c.19-.8.28-1.72.48-2.52a1.07,1.07,0,0,0,0-.44,1.83,1.83,0,0,0,.2-.42l-.08-.36c0-.16.15-.34.19-.49l-.07-.29.17-.26c.05-.09-.05-.22,0-.38s.15-.33.18-.49a1,1,0,0,1,0-.45c0-.15.09-.24.13-.4l-.07-.29.17-.26c0-.16-.07-.29,0-.45s.17-.26.21-.42l-.09-.35c0-.16.17-.27.15-.34a.93.93,0,0,0,0-.44c0-.16.16-.27.2-.43s-.07-.28,0-.37a6.39,6.39,0,0,0,.2-1.1.66.66,0,0,0,0-.37c.07-.32.26-.81.34-1.13l-.08-.36c.15-.63.31-1.27.4-1.82a1.07,1.07,0,0,0,0-.52c.7-3.16,1.16-6.42,1.75-9.72.1-.55.27-1.11.37-1.66,0-.14,0-.3,0-.44a1.32,1.32,0,0,1,.2-.43c0-.14-.07-.28,0-.37A9.46,9.46,0,0,0,238.5,89.74ZM236.94,77.4c-.44-.27-.34-.82-.47-1.39-.23-1-.76-2-1.83-1.76l-.59.36a6.43,6.43,0,0,0-1,1,.42.42,0,0,0-.1.25,6.63,6.63,0,0,0-1.32,2.11c-.11.17-.23.28-.34.45l-.12.48c-.05.09-.18.19-.23.28a15.75,15.75,0,0,0-1.12,3.64c0,.16-.17.26-.21.42s0,.3,0,.46a8.21,8.21,0,0,1-.24,1.26.92.92,0,0,1,0,.44,3.21,3.21,0,0,0,.05,1.2l.14,0c.18-.19.52-.34.7-.53.56-.51,1.18-1.1,1.72-1.68l.22-.35c.11-.17.25-.21.38-.31a.55.55,0,0,1,.22-.35c.66-.75,1.15-1.54,1.8-2.29.37-.39.54-1,.9-1.34a8.42,8.42,0,0,0,.68-1,.75.75,0,0,0,.2-.42C236.57,78.09,237,77.77,236.94,77.4Z"/><path class="cls-1" d="M249.37,85.37a1.53,1.53,0,0,1-.93-1.07l0-.44c.11-1.15.47-2.21.67-3.31a11.79,11.79,0,0,1,.34-1.13,11.27,11.27,0,0,1,.52-2.3l.09-.62c.22-.65.41-1.45.57-2.09a26.8,26.8,0,0,1,1-3.9c0-.16,0-.38.1-.55.23-.66.42-1.45.7-2.19s.31-1.28.53-1.93c0-.16.24-.28.35-.45a1.32,1.32,0,0,1,.91-1l.44,0c.39.06,1.22.4,1.37,1v.3a9.82,9.82,0,0,1-.31,1.58l-.19.49c-.06.09,0,.23-.06.39-.17.56-.47,1.23-.71,1.82L254,72.59a1.3,1.3,0,0,0-.12.48c-.24.58-.32,1.2-.57,1.79,0,.23-.2.42-.12.78l.13-.11c.27-.14.4-.54.55-.88.46-.63.82-1.31,1.26-2a42.35,42.35,0,0,1,4.33-5.72,8.49,8.49,0,0,1,1.68-1.52l1.32-.45a1.36,1.36,0,0,1,.75,0A3.5,3.5,0,0,1,265,66.31a5,5,0,0,1,.35,1.19l.1.43a1.6,1.6,0,0,1-.1.55l.11.5,0,.23c0,.14-.08.32-.12.48l0,.44-.17.57v.6l-.19.49a1,1,0,0,0,0,.45l-.21.42c-.12.78-.29,1.35-.39,2.2l-.25.58a8.58,8.58,0,0,1-.14,1.31c0,.23-.15.34-.07.69a.08.08,0,0,1,.09.06,4.49,4.49,0,0,0,1-1l1.8-2,.33-.53c.77-.92,1.44-1.9,2.19-2.9a11.74,11.74,0,0,0,.79-1.16l.8-1.09a3.19,3.19,0,0,1,.38-.61c0-.16.19-.19.3-.37a.83.83,0,0,1,1.12.65l-.24.58-.39.61-1,1.81a3.85,3.85,0,0,0-.53,1,4.07,4.07,0,0,0-.61,1,32.72,32.72,0,0,1-2.07,3.4,21.64,21.64,0,0,1-1.71,2.72l-.2.43c-.58.73-1.55,2.08-2.84,2.38a1.87,1.87,0,0,1-1.22-.1c-.16,0-.28-.24-.45-.35-.46-.34-.85-.4-1.21-1l-.07-.28-.07-.66-.18-.79a1.38,1.38,0,0,1,.08-.62,1.24,1.24,0,0,1,0-.51.58.58,0,0,1,.13-.41L260,77l.82-4.62a1.5,1.5,0,0,0,.19-.49l0-.53.14-.34a.93.93,0,0,0,0-.44,2.45,2.45,0,0,0,.22-1.33l-.16,0c-.36.38-.74.7-1,1.06-.55.58-1,1.21-1.53,1.86-.29.36-.48.86-.84,1.24a5.68,5.68,0,0,1-.5.79l-.58.74c0,.07,0,.21,0,.23a5.74,5.74,0,0,0-.55.88l-1.25,2.09-.59,1-1.54,3.14c-.18.49-.47.86-.66,1.35l-.4.54a1.44,1.44,0,0,1-.5.79,1.74,1.74,0,0,1-.88.43A1.86,1.86,0,0,1,249.37,85.37Z"/><path class="cls-1" d="M295.63,90.15a9.48,9.48,0,0,1,0-2.39c.15-1.32-.11-2.16.07-3.33l-.07-.28a41.89,41.89,0,0,0-.36-7.13,14.15,14.15,0,0,1-.38-3c0-.08-.05-.22-.14-.27l0-.82-.2-.56c0-.08,0-.16,0-.3l-.41-1.78-.17-.42-.11-.8a17.3,17.3,0,0,0-1.29-3.31,9,9,0,0,0-1.42-2.9,21.28,21.28,0,0,0-3.91-4.59,23,23,0,0,0-7.26-3.82C277,53.71,276,53,273.19,53.3l-1.2.35-2.21.51-.41.17-3.57.82a6.78,6.78,0,0,0-1.25.43l-3.36.77-2.54.74-1.07.24-.69.24-.73.09-.34.15-2.29.53-1.05.31-1.38.24-1.19.35-1.32.16c-1.14.26-1.48.11-2.41.32a5.35,5.35,0,0,0-1.22-.09,1.9,1.9,0,0,1-1.34-1.27,2.61,2.61,0,0,1,.21-2,10.73,10.73,0,0,1,2.72-1.6l.42-.1a21.36,21.36,0,0,1,3.8-1.48A28.34,28.34,0,0,0,255.15,52l.73-.09a1.59,1.59,0,0,1,.55-.2l5-1a2.43,2.43,0,0,0,.66-.07,18.39,18.39,0,0,1,3.9-.37,1.27,1.27,0,0,0,.51,0,1.3,1.3,0,0,1,.52,0,55.19,55.19,0,0,1,7.71.18,10.12,10.12,0,0,0,1.7.22l5.23-1.13a4.66,4.66,0,0,1,1.15-.19,1,1,0,0,1,.42-.17l2.87-.58a3.84,3.84,0,0,1,1-.16l.34-.16h.38l3.41-.85.44,0c2.07-.48,2-.39,4.44-.95l.88-.12,1.84-.5,3.78-.87a2.58,2.58,0,0,0,.77-.25c1.49-7.25,1.55-8.62,3.07-16.41.28-1.42.57-2.76.93-4.12.16-.94.3-2.32,1.25-2.77l.25-.2c.86-.2,1.72,0,1.95,1a4.89,4.89,0,0,1-.43,2.06c-.24.58-.25,1.18-.48,1.84-1.13,4.24-2.24,8.55-3,13-.46,1.61-.43,2.06-.78,3.49,0,.46-.36,1.06-.24,1.56l12.45-2.71.52,0,.84-.27.51,0c7.71-1.76,11-2.36,18.74-4.15l26.27-6,16.33-3.82,1.45-.26,1-.37,6-1.45a14.74,14.74,0,0,0,1.7-.46l10.14-2.33a8.88,8.88,0,0,0,1.46-.49l.95-.14.55-.2c2.64-.61,1.21-.28,3.91-1a65.29,65.29,0,0,0,6.72-1.84.91.91,0,0,1,1,.28,1.19,1.19,0,0,1,.45.65,1.3,1.3,0,0,1-1.15,1.54,7.57,7.57,0,0,1-1.25.14c-3.8.79-1.87.35-5.44,1.17a14.27,14.27,0,0,1-1.74.25l-1.63.45a11,11,0,0,1-1.52.27,4.5,4.5,0,0,0-.91.29,3.65,3.65,0,0,0-.87.12l-1.44.26-.63.22-1.66.3-7.49,1.72h-.31l-.91.28a5.66,5.66,0,0,0-1.08.18L308.19,45l-.94.14-.42.17-1.35.31a26.5,26.5,0,0,0-.65,3.08c-.53,2.9-.8,3.72-1.31,7.06l-1.32,7c0,.44-.19.49-.11.85a13.41,13.41,0,0,0-.43,2.35c-.85,5.16-1.31,9.69-2.1,14.76a24.92,24.92,0,0,0-.52,6.58l-.12,2.74c-.14.4-.54,1.25-1.26,1.41C296.4,91.56,295.84,91.08,295.63,90.15Zm-24.72-8.82a2.4,2.4,0,0,1-.77,0,3.48,3.48,0,0,1-1.05-.66c-.37-.3-.34-.83-.63-1.44l-.1-.43-.14-.94,0-.82a8.3,8.3,0,0,1,.26-2.16l.19-1.47,1.08-3.48.23-.28a11.33,11.33,0,0,1,5.28-6.17l.64-.15.41-.17,1.25-.13,1.11.27c.16,0,.28.23.37.29l.47.11.68.67c.21.26.33.76.76.66a11.88,11.88,0,0,0,1-1.65l.38-.62c.26-.51.54-1,.73-1.44l.23-.28a4.92,4.92,0,0,1,.5-1.09l.63-.52.26-.51c.24-.28.37-.69.7-.91l.41-.17a1.32,1.32,0,0,1,1.39.5l.16.34a2.86,2.86,0,0,1,0,.84,11.13,11.13,0,0,1-.73,3c-.79,2.81-1.81,5.53-2,8.58a11.26,11.26,0,0,0,0,3.09l.19.48h.3c.24-.28.58-.43.88-.73l1.31-1.5c.35-.46.61-1,1-1.35l.44-.7a10.08,10.08,0,0,0,.94-1.49,2,2,0,0,1,.45-.64c.32-.59.65-1.12.94-1.79a1.85,1.85,0,0,0,.35-.45c.35-.76.86-1.48,1.21-2.24l1.27-2.69.58-1c.62-1.57,1.41-3,2.1-4.61l.52-1,1.37-3.18,3.57-8.7a1.69,1.69,0,0,1,.29-.67,15.79,15.79,0,0,0,.59-1.71l.42-.78,1.06-3.25.35-.75c.2-.43.25-.89.44-1.38l.35-.76c.22-.65.31-1.27.53-1.93.08-.31.3-.66.38-1,.14-.71.31-2.25,1.24-2.47a1.48,1.48,0,0,1,.69.07,1.15,1.15,0,0,1,.47.42.92.92,0,0,1,.17.41c.13.57-.29,1-.49,1.47l-.27.81-2.23,5.32a9.38,9.38,0,0,0-.38,1.29c-.24.58-.57,1.11-.74,1.67-.17.27-.12.48-.29.74l-1.27,3.3-.16.26-.13.41a3.39,3.39,0,0,1-.47.93c-.28.74-.49,1.47-.84,2.23-.8,2.06-1.71,4-2.52,6.06l-.57,1.11c-.84,2.22-1.86,4.33-2.79,6.5a8.07,8.07,0,0,1-.52,1c-1,2.41-2.24,4.65-3.28,7-.18.49-.6,1-.79,1.46a10.91,10.91,0,0,0-.64,1.12,8,8,0,0,1-1.05,1.67,1.6,1.6,0,0,0-.18.5l-.92,1.26a3.19,3.19,0,0,0-.38.61,7.27,7.27,0,0,0-.78.86,3,3,0,0,0-.44.4,4.86,4.86,0,0,1-1.58,1l-.21,0a1.38,1.38,0,0,0-.53,0c-.39-.06-.59.06-.93-.09a4,4,0,0,1-1.85-2.5L281.41,74l0-1.72c.09-1.23.19-2.45.37-3.62A7.83,7.83,0,0,0,282,67l-.14,0a3.33,3.33,0,0,0-.77,1.22l-.62.9a10.3,10.3,0,0,0-.83,1.62l-.26.21-.46.93c-.07,0-.14,0-.13.1l-.31.6c-.11.18-.31.3-.4.54-.26.51-.68,1-.94,1.5a5,5,0,0,1-.93,1.49l-.37.68c-.65.75-1.06,1.6-1.64,2.33a5.53,5.53,0,0,1-2.75,2.14Zm.64-3.08a4.78,4.78,0,0,0,.87-.8c.62-.6,1.13-1.31,1.67-1.89l.79-1.16.47-.56,1.74-2.57c.29-.37.48-.87.75-1.3a21,21,0,0,0,1.39-2.13c.17-.26.48-.56.39-.91l-.63-.46a3.5,3.5,0,0,0-2.5-.1c-.18.19-.63.22-.89.35l-1.17.8a13,13,0,0,0-3.69,7.53,7.94,7.94,0,0,0-.07,3l.2.55.36-.08Zm26.78-4.5c.07-.31,0-.67.05-1.06,1.49-7.26,2.07-13.25,3.49-19.81l.71-4.15a15.6,15.6,0,0,1,.35-1.73,1.91,1.91,0,0,0,.07-.69l-.45,0-13.7,3.15c-2.79.64-5.41,1.32-8,2l0,.08c1.15.41,1.29.38,2.52.84,7.79,3.48,9.88,7.66,12.25,12.75.36,1.57.71,1.79,1.08,3.43a2.13,2.13,0,0,1,.24.7l.18.78.14.27a10.89,10.89,0,0,0,.3,1.66l.35,1.5.1,1.1h.07C298.11,74.11,298.19,74.16,298.33,73.75Z"/><path class="cls-1" d="M309,72a2.7,2.7,0,0,1-.71-.14h-.6a2,2,0,0,1-1.09-.8,2.06,2.06,0,0,0-.22-.63c0-.14-.22-.32-.27-.54l0-.14A9.84,9.84,0,0,1,306.1,67a50.48,50.48,0,0,1,1.65-7.22,1.36,1.36,0,0,0,0-.53,24.85,24.85,0,0,1,1.69-4.44c.24-.28.59-.36.76-.63a1.66,1.66,0,0,1,1.9,1.07l0,.14a7,7,0,0,1-.22,1.33,53.26,53.26,0,0,0-2.45,8,10.29,10.29,0,0,0-.31,3.23l.28-.07c.3-.36.83-.64,1.13-1,.12-.1.16-.26.23-.27l1.2-1.33c.06-.09.09-.25.22-.35l.64-.83L314,62.58c.07,0,.05-.09.11-.18a1.47,1.47,0,0,0,.36-.38c0-.07,0-.16.09-.25a11.26,11.26,0,0,0,.72-1.14,11.14,11.14,0,0,0,.71-1.14,8.92,8.92,0,0,1,.61-1c.54-1.26,1.31-2.48,1.9-3.82l.18-.2a5.23,5.23,0,0,1,.87-1.77l.47-.26a1.42,1.42,0,0,1,1.39.51l.26.46c.12.5-.25.89-.4,1.22-.5,1.09-1.1,2.06-1.53,3.13l-.28.44c-.61,1.27-1.39,2.43-2,3.77l-.29.36-.35.76a1.92,1.92,0,0,1-.35.46,10.15,10.15,0,0,1-1.3,2.17c-.06.09,0,.16-.11.18s-.17.26-.22.35l-.39.62c-.71.83-1.17,1.77-2,2.55-.12.11-.14.34-.27.44-.29.37-.69.61-1.05,1a3.42,3.42,0,0,1-.43.4,1.37,1.37,0,0,1-.56.21,1.55,1.55,0,0,1-.79.48Zm18.49-3.57a1.23,1.23,0,0,1-.82-.94A6,6,0,0,1,326.9,65c.38-2,.9-4,1.33-6l.42-1.75a2.64,2.64,0,0,0,.18-.87l-.07,0,0-.07-.05.08c-.27.14-.46.64-.61,1-.49.79-1.06,1.6-1.47,2.44l-.12.11c-.18.19-.26.51-.44.7a1.69,1.69,0,0,0-.28.44c-.15.33-.4.54-.55.87l-.78,1.16a8.08,8.08,0,0,1-.61,1c-.69.91-1.22,1.86-1.93,2.7-.13.1-.15.33-.28.43A10.26,10.26,0,0,1,320,68.77l-.54.28a2.12,2.12,0,0,1-.68.3h-.38a3.33,3.33,0,0,1-1.05-.35,1.57,1.57,0,0,1-.72-.82l-.18-.78a4.32,4.32,0,0,1,0-1.12,16.51,16.51,0,0,1,.26-2.17,48.34,48.34,0,0,1,1.32-6c0-.16,0-.37.1-.55.47-1.54.84-3.2,1.39-4.75l.19-.8c.19-.49.46-.93.6-1.34s.21-.72.62-.89l.14,0,.44,0a1.92,1.92,0,0,0,.46.35c.15.64-.22,1-.24,1.56l-.55,2.53a.66.66,0,0,0,0,.37,21.77,21.77,0,0,0-.63,2.47L320,59.09l-.08.62a24.59,24.59,0,0,0-.55,2.53c-.15.64-.3,1.27-.39,1.89a1.09,1.09,0,0,0,.05.52,4.33,4.33,0,0,0-.15,1.31l.14,0c.05-.09.2-.12.27-.14s.09-.25.16-.26l1.27-1.35c1.06-1.29,1.85-2.75,2.92-4,.36-.39.54-1,.88-1.41s.55-.87.9-1.33l.15-.33a3.28,3.28,0,0,0,.56-.81c.21-.42.5-.79.77-1.23a25.33,25.33,0,0,0,1.4-2.42l.18-.2c.41-.84,1-1.72,1.35-2.64a9.72,9.72,0,0,0,.64-1.12,8.62,8.62,0,0,1,.89-1.71,7.13,7.13,0,0,1,.65-.45h.07a1.35,1.35,0,0,1,1.81,1,2.53,2.53,0,0,1-.12,1.45c-.43,1.38-1,2.72-1.55,4-.3,1-.54,1.93-.85,2.83l-.48,1.84a2.39,2.39,0,0,0-.29,1l.14,0a2.12,2.12,0,0,0,.48-.86c.23-.66.63-1.2.92-1.87a4.11,4.11,0,0,1,.46-.63,11.94,11.94,0,0,1,1.18-2.07,23.34,23.34,0,0,1,2.43-3.49,7.51,7.51,0,0,1,1.34-1.36.86.86,0,0,1,.41-.17,2.54,2.54,0,0,1,.81-.41l.14,0,.69.06a1.93,1.93,0,0,1,.85.11,4.38,4.38,0,0,1,1.29,1.35,3.48,3.48,0,0,1,.39,1l.23,1.3a9.61,9.61,0,0,0,.13,2.23l0,.21.14,0c.56-.2,2.88-3.52,3.29-4a1.25,1.25,0,0,1,.22-.35,1.73,1.73,0,0,1,.49-.19,1.56,1.56,0,0,1,1.66.68l.13.27a1.81,1.81,0,0,1-.2,1.09,42.24,42.24,0,0,1-2.55,3.6,10.33,10.33,0,0,1-2.23,2.08,4.92,4.92,0,0,1-1.13.34l-.42.1a3.5,3.5,0,0,1-2-1c-.12-.2-.11-.5-.32-.76a4.28,4.28,0,0,1-.39-1l-.35-2.18a4.77,4.77,0,0,0-.12-1.17l-.2-.56-.14,0c-.31.29-.67.37-.9.65-.67.68-1.17,1.47-1.84,2.15a11.08,11.08,0,0,0-.85,1.55c-.14.33-.47.56-.62.89l-.61,1.27a2,2,0,0,1-.27.44l-1,2c-.69,1.59-1.22,3.21-1.8,4.93L329.76,67a2.11,2.11,0,0,1-.44,1,1.78,1.78,0,0,1-.88.43A1.9,1.9,0,0,1,327.46,68.42Zm3.1-9.43c-.07,0-.07,0-.11.18l.07,0Z"/><path class="cls-1" d="M351.74,62.55c-1.76.17-2.06.54-3.76-.34a6.49,6.49,0,0,1-2.28-2.41l-.88-2.2-.18-2.07a10.84,10.84,0,0,1,.75-4.6A24.83,24.83,0,0,1,349,45.21a12.34,12.34,0,0,1,3-2l.43-.1c.18-.19.22-.35.36-.38a6.22,6.22,0,0,1,1.1-.48c1.67-.24,1.73-.62,2.73.42a3,3,0,0,1,1.13,1,3.28,3.28,0,0,1,.43,1.86l-.13.78a3.94,3.94,0,0,1-.7,1.51c-1.13.64-.19.5-1.47,1.47-.35.08-.52.64-.85.87a18.67,18.67,0,0,1-2.2,1.55c-1.79.72-2.32.69-3.48,1.18-.36.08-1.18.42-1.22.58a3.55,3.55,0,0,0-.52,2,4.25,4.25,0,0,0,.14,1.92c.77,2.38,1.51,2.66,2.27,2.71a4.38,4.38,0,0,0,1-.16,9.21,9.21,0,0,0,3.78-2.52,24.9,24.9,0,0,0,5-7.15c.93-1.19,1.24-2.77,1.88-3.59.38-.31.48-.56.83-.64l.14,0a1.84,1.84,0,0,1,1.66.68l.11.8c-.09.25-.08.62-.34.83,0,0-3.72,9.64-10.84,14Zm.39-14c2.22-1.48,2.34-2.26,2.51-3.13l-.08-.05c-.51.41-2.29.52-4.1,2.44l-.94,1.79Z"/></g></g></svg>